<svg width="137" height="88" viewBox="0 0 137 88" fill="none" xmlns="http://www.w3.org/2000/svg">
<path d="M64.8714 87.948C64.6335 87.948 63.8823 87.3374 63.4087 87.3374C63.6466 87.3374 64.3978 87.948 64.8714 87.948Z" fill="#242222"/>
<path d="M70.908 43.3582C73.218 39.6392 73.68 35.6718 71.94 34.4967C70.2 33.3216 66.9168 35.3838 64.6069 39.1027C62.2969 42.8216 61.8349 46.789 63.5749 47.9642C65.3149 49.1393 68.5981 47.0771 70.908 43.3582Z" fill="black"/>
<path d="M119.193 55.4392L119.207 55.5219L119.261 55.7871L119.34 56.0741L119.438 56.3466L119.552 56.602L119.683 56.8428L119.83 57.0666L119.991 57.2734L120.164 57.4631L120.35 57.6358L120.546 57.7915L120.751 57.9326L120.966 58.0591L121.192 58.1686L121.426 58.2635L121.668 58.3437L121.813 58.3827C121.841 58.39 121.869 58.3948 121.897 58.3997L121.955 58.4118L122.261 58.4459L122.627 58.4362L122.984 58.3827L123.327 58.2927L123.656 58.1734L123.971 58.0324L124.272 57.8767L124.561 57.7064L124.841 57.5215L125.112 57.3269L125.375 57.1201L125.632 56.9061L125.882 56.6798L126.126 56.4439L126.364 56.1982L126.689 55.8357L127.02 55.4198L127.256 55.0914L127.461 54.78L127.657 54.4491L127.841 54.0964L128.014 53.7218L128.165 53.3204L128.291 52.8947L128.385 52.4447L128.434 51.9752V51.496L128.368 51.0241L128.242 50.574L128.053 50.1629L127.897 49.9197C127.872 49.888 127.846 49.8564 127.82 49.8272L127.753 49.7251L127.501 49.4331L127.172 49.1485L126.801 48.9101L126.388 48.7301L125.938 48.6134L125.459 48.5671L124.96 48.5915L124.456 48.6815L123.955 48.8299L123.465 49.0318L122.991 49.2799L122.538 49.5645L122.109 49.8807L121.703 50.2262L121.323 50.5959L120.966 50.9876L120.635 51.3987L120.332 51.8317L120.059 52.2817L119.821 52.7488L119.622 53.2329L119.468 53.7267L119.363 54.2254L119.314 54.724L119.324 55.213L119.394 55.6825L119.524 56.1228L119.713 56.5217L119.958 56.8696L120.252 57.1591L120.59 57.3829L120.793 57.5021C121.209 58.2148 122.189 58.2051 122.984 57.4826C123.78 56.7577 124.085 55.5949 123.672 54.8821L123.773 54.8238L123.941 54.673L124.113 54.5659L124.279 54.5002L124.433 54.4686L124.568 54.4637L124.68 54.4759L124.766 54.5002L124.829 54.5319L124.871 54.5635L124.892 54.5902L124.897 54.6121L124.888 54.6267L124.867 54.6365L124.839 54.6413H124.801L124.757 54.6486L124.703 54.6535L124.638 54.6608L124.561 54.6705L124.47 54.6827L124.367 54.6924L124.251 54.6973L124.127 54.6924L124.001 54.673L123.88 54.6389L123.775 54.5854L123.693 54.5197L123.642 54.4467L123.623 54.3786L123.637 54.3251L123.714 54.3348L123.808 54.4078L123.731 54.3154L123.661 54.184L123.616 54.0161L123.591 53.8264V53.6318L123.614 53.4469L123.654 53.2839L123.703 53.1526L123.754 53.0553L123.801 52.992L123.84 52.9604L123.866 52.9555L123.88 52.9726V53.0091L123.894 53.0285L123.857 53.1283L123.78 53.2645L123.735 53.3399L123.686 53.4129L123.635 53.4834L123.584 53.5491L123.535 53.6075L123.49 53.6561L123.455 53.695L123.432 53.7242L123.423 53.7437L123.432 53.751H123.6L123.703 53.768L123.759 53.7875L123.698 53.7778L123.782 53.7948H123.763L123.689 53.7802L123.621 53.7632L123.558 53.7437L123.502 53.7218L123.451 53.6975L123.406 53.6707L123.369 53.644L123.336 53.6172L123.308 53.5904L123.285 53.5661L123.264 53.5418L123.248 53.5199L123.234 53.498L123.222 53.4761L123.208 53.4202L123.196 53.335C123.017 52.199 121.974 51.749 120.863 52.3279C119.753 52.9069 118.999 54.2959 119.177 55.4319" fill="black"/>
<path d="M131.756 1.38658L131.737 1.37442L131.947 1.28684L132.285 1.48632L132.346 1.69309L132.388 1.75633L132.453 1.76363L132.584 1.72228L132.785 1.63227L132.873 1.52037L132.927 1.40847L132.983 1.26495L133.039 1.02412L132.999 0.501117L132.292 0L131.777 0.145957C131.725 0.172716 131.674 0.206772 131.625 0.240828L131.562 0.265156L131.285 0.457329L130.993 0.715183L130.739 0.985201L130.515 1.26495L130.316 1.552L130.13 1.84391L129.952 2.14312L129.782 2.44719L129.616 2.75856L129.465 3.07967L129.318 3.40564L129.106 3.89458L128.828 4.56354L128.578 5.24224L128.343 5.90877L128.121 6.55098L127.969 7.00831L127.876 7.29535L127.787 7.5678L127.703 7.82079L127.624 8.05432L127.552 8.26353L127.487 8.44597L127.431 8.59679L127.384 8.70869L127.354 8.7695L127.358 8.74275L127.37 8.71355L127.113 9.29008L126.658 10.4772L126.224 11.6765L125.804 12.8806L125.399 14.0872L125.007 15.2962L124.629 16.5076L124.265 17.7214L123.915 18.9377L123.581 20.1589L123.262 21.3825L122.958 22.6085L122.671 23.837L122.401 25.0703L122.146 26.3061L121.911 27.5443L121.692 28.7873L121.491 30.0328L121.321 31.2783L121.197 32.5214L121.118 33.762L121.071 35.0002L121.055 36.2359L121.062 37.4692L121.101 38.6977L121.185 39.9189L121.318 41.1279L121.491 42.3271L121.713 43.5142L121.939 44.7038L122.163 45.8982L122.373 47.1047L122.475 47.7129C122.492 47.9343 122.674 48.0389 122.884 47.9489C123.094 47.8589 123.25 47.6059 123.234 47.3869L123.243 46.7423L123.299 45.4457L123.413 44.1443L123.57 42.8453L123.763 41.5511L123.95 40.2789L124.136 39.0237L124.314 37.7855L124.486 36.5619L124.666 35.3505L124.857 34.1463L125.056 32.9519L125.261 31.7648L125.457 30.5874L125.641 29.4198L125.83 28.257L126.035 27.0967L126.257 25.9388L126.495 24.7833L126.747 23.6302L127.015 22.4796L127.298 21.3314L127.596 20.1832L127.909 19.0375L128.235 17.8942L128.576 16.7508L128.931 15.61L129.299 14.4691L129.682 13.3306L130.078 12.1946L130.487 11.0586L130.897 9.91282L131.082 9.32413C131.082 9.32413 131.089 9.30467 131.093 9.29494L131.142 9.14412L131.208 8.92032L131.264 8.69895L131.317 8.47272L131.366 8.23676L131.413 7.99107L131.459 7.73565L131.506 7.4705L131.555 7.19561L131.604 6.91343L131.676 6.48043L131.77 5.88445L131.868 5.2836L131.97 4.69004L132.064 4.11109L132.138 3.69754L132.187 3.44456L132.236 3.20616L132.276 2.98479L132.313 2.78532L132.348 2.61261L132.376 2.46908L132.395 2.35962V2.28421L132.36 2.24528H132.295L132.246 2.22826L132.299 2.17231L132.148 2.26718L131.662 2.3961L130.993 1.89256L130.967 1.40604L131.014 1.23333L131.042 1.18468H131.056L131.068 1.27468L131.154 1.46442L131.208 1.62011L131.231 1.74174L131.245 1.89986L131.296 2.17474L131.646 2.41313L131.893 2.32556L131.905 2.2988C132.15 2.16501 132.313 1.85607 132.269 1.60551C132.225 1.35739 131.989 1.26252 131.744 1.39631" fill="black"/>
<path d="M10.5819 40.4904L10.7336 40.3979L11.0415 40.2131L11.3565 40.0282L11.6784 39.8409L12.0074 39.6511L12.3433 39.459L12.6862 39.2668L13.0362 39.0722L13.5751 38.7778L14.3169 38.3813L15.0798 37.9824L15.8637 37.581L16.6685 37.1747L17.492 36.7709L18.3296 36.3623L19.1834 35.956L20.0512 35.5546L20.9284 35.1484L21.8173 34.747L22.7108 34.3456L23.6089 33.9491L24.4768 33.4869L25.3353 33.0028L26.1868 32.5066L27.036 32.0031L27.8805 31.4995L28.7204 30.9935L29.5532 30.4875L30.3814 29.984L31.2049 29.4902L32.0214 29.0012L32.8309 28.5269L33.6335 28.0623L34.4267 27.6098L35.2105 27.1744L35.985 26.7535L36.3653 26.5492C36.6919 26.464 36.8926 26.1186 36.8109 25.7756C36.7292 25.4351 36.398 25.2258 36.069 25.311L35.6165 25.3231L34.7043 25.3767L33.7734 25.4667L32.8286 25.5883L31.8721 25.744L30.9063 25.9337L29.9335 26.1502L28.9583 26.4032L27.9785 26.6805L27.001 26.9895L26.0258 27.33L25.0577 27.7022L24.0989 28.1036L23.1517 28.5342L22.2232 29.0012L21.3157 29.5072L20.4572 30.0983L19.6127 30.6992L18.7868 31.3122L17.9773 31.9276L17.1888 32.5553L16.4189 33.1853L15.6677 33.8153L14.9422 34.4502L14.24 35.0803L13.5634 35.7103L12.9125 36.3355L12.292 36.9534L11.8464 37.4107L11.5571 37.7148L11.2748 38.0164L11.0019 38.3156L10.7359 38.6124L10.4793 38.9043L10.232 39.1938L9.99405 39.4784L9.87974 39.6195C9.64878 39.8214 9.61845 40.1814 9.81208 40.4223C10.0057 40.6631 10.351 40.6947 10.5819 40.4928" fill="#242222"/>
<path d="M16.587 32.4675L16.51 32.74L16.3514 33.297L16.1858 33.8711L16.0131 34.4647L15.8335 35.0752L15.6492 35.7029L15.4602 36.3475L15.2666 37.0092L15.0683 37.6854L14.8653 38.3787L14.6577 39.0866L14.4477 39.8066L14.2354 40.5413L14.0208 41.2881L13.8038 42.0471L13.5869 42.8182L13.3699 43.599L13.1506 44.3896L12.8217 45.5938L12.3901 47.2285L11.9585 48.8924L11.5409 50.583L11.135 52.2931L10.7454 54.0203L10.3768 55.7572L10.0898 57.5086L9.88455 59.2674L9.75858 60.5883L9.68625 61.4665L9.6256 62.3373L9.57894 63.2058L9.53928 64.0693L9.51595 64.928L9.50195 65.7794V66.6236L9.50895 67.4604L9.52761 68.2874L9.56494 69.1048L9.6116 69.9124L9.66759 70.7079L9.73524 71.4936L9.81923 72.2647L9.91488 73.0237L10.0199 73.7681L10.1388 74.4979L10.2718 75.2106L10.4165 75.9063L10.5774 76.585L10.7501 77.2443L10.939 77.884L11.1397 78.5043L11.3566 79.1028L11.5876 79.6793L11.8325 80.2315L12.0938 80.7594L12.2315 81.0196C12.3551 81.348 12.7097 81.511 13.0223 81.3821C13.3373 81.2532 13.4936 80.8834 13.3699 80.5574L13.3163 80.3069L13.2159 79.779L13.1296 79.2341L13.0596 78.6722L13.0037 78.0932L12.9593 77.4997L12.9313 76.8891L12.9127 76.2639L12.908 75.6217L12.915 74.9649L12.9337 74.2935L12.9617 73.61L12.999 72.9118L13.048 72.2015L13.1086 71.479L13.1716 70.7444L13.2463 69.9976L13.3303 69.241L13.4236 68.4748L13.5169 67.6988L13.6195 66.913L13.7269 66.12L13.8388 65.3173L13.9578 64.5072L14.0745 63.6898L14.1981 62.8676L14.3241 62.0381L14.4501 61.2086L14.6437 59.9509L14.9026 58.2554L15.1173 56.5429L15.2852 54.8157L15.4625 53.0886L15.6445 51.3663L15.8312 49.6562L16.0178 47.9607L16.2114 46.2895L16.3514 45.0537L16.4447 44.2413L16.538 43.4385L16.629 42.6455L16.7177 41.8622L16.8063 41.0886L16.8903 40.3272L16.9743 39.578L17.0536 38.8433L17.1306 38.1233L17.2052 37.4178L17.2776 36.727L17.3452 36.0531L17.4105 35.3963L17.4712 34.7566L17.5272 34.1338L17.5785 33.5305L17.6252 32.9492L17.6462 32.667C17.7021 32.358 17.5062 32.0613 17.2099 32.0029C16.9136 31.9445 16.629 32.1488 16.573 32.4578" fill="#242222"/>
<path d="M3.38972 59.0925L3.30807 59.0998L3.12611 59.1242L2.85549 59.1753L2.50555 59.2628L2.16728 59.3626L1.843 59.4647L1.53506 59.5572L1.24344 59.6326L0.965827 59.6837L0.849181 59.6958L0.87951 59.6885L0.839851 59.6934L0.821187 59.6885L0.877178 59.6764L1.04515 59.6885L1.39042 59.871L1.65404 60.3818L1.62371 60.7491L1.56539 60.8902L1.54439 60.9365H1.55372L1.58638 60.9194L1.63538 60.8854L1.69836 60.844L1.77302 60.7954L1.90599 60.7102L2.10662 60.5862L2.32592 60.4524L2.55921 60.3137L2.79717 60.1726L3.03279 60.034L3.25675 59.8977L3.41539 59.8004L3.51804 59.7372L3.61368 59.6764L3.70467 59.6156L3.75133 59.5839L4.26223 59.2434L5.27705 58.5866L6.29653 57.9517L7.32535 57.3289L8.35884 56.7135L9.40165 56.1078L10.9787 55.198L12.0332 54.5922H12.0285L12.8964 54.0984L14.6297 53.1132L16.3677 52.1402L18.1128 51.1745L19.8461 50.182L21.5538 49.1432L23.2498 48.0778L24.9435 47.0074L26.2126 46.2071L27.0571 45.6744L27.9063 45.1392L28.7578 44.6065L29.6094 44.0737L30.4632 43.5434L31.3194 43.0204L32.1756 42.495L33.0341 41.9744L33.8973 41.4587L34.7604 40.943L35.6259 40.4321L36.4938 39.9261L37.364 39.4226L38.2365 38.9239L39.1113 38.4277L39.5476 38.1795C39.8648 38.0579 40.0258 37.6906 39.9092 37.3598C39.7925 37.0289 39.4403 36.8611 39.123 36.9827L38.6261 37.0946L37.6392 37.333L36.6548 37.586L35.6726 37.856L34.6928 38.1406L33.7153 38.4398L32.7425 38.7536L31.772 39.0845L30.8061 39.425L29.8426 39.7778L28.8838 40.1499L27.9273 40.5294L26.9755 40.9235L26.0307 41.3322L25.0905 41.753L24.1527 42.1885L22.7599 42.8647L20.9286 43.8061L19.1252 44.7962L17.3639 45.8544L15.6585 46.9977L13.9975 48.2018L12.3621 49.4279L10.7547 50.6685L9.96621 51.2912H9.96155L8.99105 52.0648L7.54232 53.23L6.58349 54.023L5.62932 54.8282L4.68682 55.6504L3.75599 56.4897L2.84382 57.3459L2.40057 57.7765L2.37957 57.8008L2.31892 57.8592L2.24893 57.9249L2.17194 57.9955L2.0413 58.1122L1.84767 58.2849L1.64237 58.4674L1.42775 58.6571L1.21311 58.8493L1.00315 59.039L0.804855 59.2239L0.667214 59.3577L0.578565 59.4453L0.49458 59.5328L0.412927 59.6204L0.331273 59.7104L0.247288 59.8126L0.156305 59.9464L0.0513244 60.1629L0 60.5935L0.270619 61.153L0.650885 61.367L0.884177 61.3962L1.03815 61.3841L1.15246 61.3597L1.19212 61.3476C1.19212 61.3476 1.21312 61.3427 1.22245 61.3403L1.42074 61.2722L1.76135 61.1286L2.07396 60.9729L2.36558 60.8124L2.64086 60.6567L2.90448 60.5108L3.16577 60.3794L3.36406 60.2942L3.49937 60.2432L3.57869 60.2188C3.87497 60.1629 4.07094 59.8661 4.01728 59.5547C3.96362 59.2458 3.67901 59.0415 3.38039 59.0974" fill="#242222"/>
<path d="M17.1306 59.1876L17.196 59.0198L17.3173 58.7206L17.4293 58.4603L17.5319 58.2389L17.6229 58.054L17.7045 57.9057L17.7745 57.7962L17.8282 57.7256L17.8608 57.6989V57.7208L17.7955 57.7913L17.6229 57.8813L17.3523 57.8959L17.1283 57.8035L17.021 57.7135L16.9837 57.6746L16.9743 57.6867V57.7354L16.9837 57.8132L16.9907 57.9154L17 58.1051L17.007 58.4019V59.083L16.9977 59.4455L16.9907 59.8055V59.9831H16.9883V60.1266L16.9813 60.3966L16.9767 60.6448L16.972 60.871V61.0778L16.965 61.2651V61.4329L16.9603 61.5813V61.7127L16.9557 61.827V62.08L16.951 62.1359V62.2649L19.0856 62.1749V61.9875L19.0903 61.8854V61.7662L19.0973 61.5643L19.1043 61.2845L19.1113 61.0924L19.116 60.9853L19.1206 60.9026V60.8686H19.1253V60.9026L19.1043 61.0826L17 61.4962L16.8367 61.0875L16.8274 61.0437V61.6762L16.832 61.8367V63.3693H16.8344V63.5712L16.8414 63.9701L16.8507 64.3593L16.8647 64.7339L16.881 65.0964L16.902 65.4467L16.9254 65.7824L16.9533 66.1059L16.986 66.4173L17.021 66.7189L17.0607 67.0084L17.105 67.2882L17.1516 67.5582L17.203 67.8185L17.259 68.069L17.3196 68.3099L17.3873 68.5434L17.4596 68.7696L17.5389 68.9885L17.6252 69.2002L17.7185 69.407L17.8212 69.6064L17.9355 69.801L18.0615 69.9908L18.2015 70.1757L18.3578 70.3532L18.5327 70.5211L18.7264 70.6792L18.9387 70.8203L19.1696 70.9444L19.4169 71.0441L19.6759 71.1171L20.0281 71.1706L20.5087 71.1609L20.9963 71.0587L21.4325 70.8884L21.8175 70.6743L22.1627 70.4311L22.4777 70.1659L22.7693 69.8837L23.0469 69.5845L23.3129 69.2683L23.5695 68.9375L23.8215 68.592L24.0687 68.2296L24.3114 67.855L24.5516 67.4657L24.7873 67.0644L25.0206 66.6508L25.2492 66.2251L25.4732 65.7897L25.6948 65.3445L25.9117 64.8921L26.124 64.4323L26.4343 63.7414L26.8309 62.8073L27.2065 61.8635L27.4725 61.1532L27.6428 60.6812L27.8037 60.2215L27.9554 59.7666L28.1 59.319L28.2353 58.8811L28.3613 58.4506L28.4779 58.0322L28.5853 57.6235L28.6809 57.227L28.7532 56.8402L28.8162 56.4656L28.8699 56.1031L28.9119 55.7504L28.9399 55.4049L28.9539 55.0644V54.7165L28.9259 54.3492L28.8629 53.9381L28.7532 53.5246L28.6109 53.1718L28.4873 52.9359C28.4453 52.8629 28.3986 52.7899 28.3473 52.7218L28.3216 52.6877L27.8271 52.1793L26.7166 51.6758L25.5128 51.7658L24.7523 52.172L24.3347 52.5661L24.0804 52.8969L23.9031 53.184L23.7631 53.4467L23.6465 53.6973L23.5415 53.943L23.4435 54.1886L23.3525 54.4343L23.2662 54.6825L23.1496 55.0522L23.0003 55.5509L22.8626 56.0472L22.7366 56.5239L22.6503 56.8621L22.599 57.0737L22.5523 57.2707L22.5103 57.4532L22.473 57.6186L22.4404 57.767L22.4124 57.8959L22.389 58.0054L22.3704 58.0978L22.354 58.183L22.333 58.2924C22.3261 58.3314 22.3214 58.3703 22.3167 58.4068L22.3051 58.5503L22.2794 58.8933L22.2607 59.2582L22.2514 59.6255V59.9977L22.2607 60.3723L22.2771 60.7494L22.3027 61.1288L22.3587 61.6908L22.4567 62.4497L22.585 63.2233L22.7413 63.9969L22.9303 64.7631L23.1449 65.5197L23.3245 66.0889L23.4552 66.4659L23.5882 66.8308L23.7305 67.1884L23.8798 67.5412L24.0361 67.8866L24.1994 68.2271L24.3674 68.5604L24.5423 68.8864L24.7243 69.2051L24.9156 69.514L25.1139 69.8132L25.3192 70.1027L25.5338 70.3824L25.7578 70.6524L25.9934 70.9079L26.2383 71.1511L26.495 71.3822L26.7609 71.5963L27.0409 71.7958L27.3325 71.9758L27.6381 72.1363L27.9554 72.275L28.2866 72.3869L28.6296 72.472L28.9795 72.5255L29.3365 72.545L29.6981 72.5304L30.0597 72.4817L30.4166 72.3966L30.7665 72.2774L31.1095 72.1266L31.4431 71.9442L31.7674 71.7325L32.0823 71.4941L32.3879 71.229L32.6865 70.9371L32.9758 70.6184L33.2604 70.273L33.5404 69.9008L33.8157 69.5018L34.0839 69.0737L34.3499 68.6164L34.6112 68.1323L34.7442 67.872C34.7442 67.872 34.7512 67.8598 34.7535 67.855L34.8398 67.6701L35.0218 67.259L35.1944 66.8308L35.3507 66.3978L35.4953 65.9673L35.6307 65.5416L35.7566 65.128L35.8756 64.7291L35.9339 64.5369C36.0692 64.2158 35.9316 63.8388 35.6213 63.6952C35.3134 63.5541 34.9518 63.6977 34.8141 64.0212L34.7138 64.1988L34.5132 64.5612L34.3102 64.9285L34.1049 65.2959L33.8973 65.6559L33.6873 66.0013L33.475 66.3273L33.2558 66.6387L33.1344 66.8016L33.1438 66.7846L32.9921 66.9792L32.6889 67.3539L32.3949 67.6944L32.1103 68.0009L31.8373 68.2758L31.5761 68.5191L31.3264 68.7307L31.0908 68.9107L30.8692 69.0615L30.6639 69.1856L30.4749 69.2853L30.3023 69.3607L30.146 69.4143L30.006 69.4483L29.8824 69.4678L29.7727 69.4751H29.6747L29.5837 69.4605L29.4998 69.441L29.4158 69.4143L29.3318 69.3778L29.2455 69.3316L29.1568 69.2732L29.0635 69.2026L28.9655 69.1175L28.8629 69.0177L28.7579 68.9034L28.6506 68.772L28.5433 68.6261L28.4336 68.4631L28.324 68.288L28.2143 68.0982L28.107 67.8939L28.002 67.6774L27.8994 67.4487L27.7991 67.2079L27.7034 66.9573L27.6101 66.697L27.5215 66.427L27.4375 66.1497L27.3581 65.8651L27.2835 65.5732L27.2112 65.2764L27.1459 64.9845L27.0549 64.532L26.9499 63.9069L26.8659 63.2768L26.7982 62.6492L26.7539 62.0313L26.7306 61.4159V60.6788L26.7399 60.4015L26.7539 60.1339L26.7726 59.8761L26.7959 59.6279L26.8239 59.392L26.8589 59.1536L26.8822 59.0125L26.8659 59.1268L26.8496 59.2144L26.8636 59.1682L26.8869 59.0903L26.9172 58.9882L26.9546 58.8665L26.9965 58.7254L27.0432 58.5673L27.0945 58.397L27.1482 58.217L27.2368 57.9324L27.3651 57.5286L27.5028 57.1199L27.6451 56.721L27.7501 56.4388L27.8154 56.2734L27.8737 56.125L27.9274 55.9985L27.9717 55.9012L28.002 55.8404L28.0067 55.8258L27.9694 55.8769L27.8527 56.0155L27.5658 56.2661L26.9312 56.5799L25.8464 56.631L24.8479 56.1493L24.4583 55.726L24.4817 55.7601L24.3417 55.546L24.2437 55.3563L24.1504 55.1057L24.0991 54.8771L24.0897 54.7652V54.7554L24.0944 54.8211L24.0874 54.9452L24.0711 55.1155L24.0454 55.3247L24.0104 55.5679L23.9638 55.8404L23.9054 56.1372L23.8518 56.4607L23.7911 56.8061L23.7211 57.1686L23.6441 57.5481L23.5602 57.9421L23.4668 58.3484L23.3665 58.7644L23.2592 59.1876L23.1472 59.6133L22.9676 60.2628L22.711 61.1459L22.4334 62.0338L22.2141 62.6906L22.0648 63.1163L21.9131 63.5347L21.7591 63.9433L21.6028 64.3399L21.4465 64.7218L21.2902 65.0891L21.1363 65.4394L20.9823 65.7702L20.8307 66.0792L20.6813 66.3662L20.5367 66.6265L20.3991 66.8576L20.2708 67.0571L20.1564 67.2249L20.0608 67.3563L19.9908 67.4487L19.9558 67.5047L19.9675 67.529H20.0351L20.1634 67.5363L20.2894 67.5606L20.3827 67.5922L20.4714 67.6263L20.5507 67.6701L20.6184 67.7163L20.6697 67.7625L20.7023 67.8039L20.7187 67.8355V67.855L20.7093 67.8598L20.686 67.8477L20.6557 67.8185L20.616 67.7723L20.5717 67.709L20.5227 67.6287L20.469 67.5314L20.4131 67.4171L20.3547 67.2857L20.2964 67.1373L20.2358 66.9719L20.1751 66.7919L20.1144 66.5949L20.0538 66.3832L19.9931 66.1546L19.9325 65.9113L19.8742 65.651L19.8158 65.3762L19.7575 65.0842L19.6992 64.7777L19.6432 64.4542L19.5872 64.1136L19.5336 63.7585L19.4799 63.3839L19.4542 63.1868L19.4356 63.0384L19.3982 62.7562L19.3632 62.496L19.3306 62.2551L19.3003 62.0362L19.2723 61.8367L19.2489 61.6567L19.2279 61.4937L19.2069 61.3502L19.1883 61.2213L19.1719 61.1094L19.1579 61.0121L19.1463 60.9269L19.1346 60.854L19.1253 60.7883L19.116 60.7226L19.0996 60.6277L18.9317 60.1899L16.825 60.5961L16.8017 60.7907V60.9075L16.8064 60.9756L16.8157 61.0778L16.8274 61.1969L16.8484 61.3989L16.8787 61.6835L16.902 61.8854L16.916 62.0046L16.9277 62.1019L16.9347 62.1724L16.9394 62.1992V62.1603L19.074 62.0776V62.0824L19.0693 62.0557L19.0646 62.0143L19.0576 61.9608L19.0483 61.8927L19.039 61.81L19.0273 61.7127L19.0133 61.5983L18.997 61.467L18.9783 61.3186L18.9573 61.1532L18.934 60.9683L18.9083 60.7639L18.8803 60.5402L18.85 60.2945L18.8173 60.0269L18.7987 59.8858L18.7777 59.7131L18.7334 59.3482L18.6867 58.9711L18.6354 58.5941L18.5794 58.2243L18.5187 57.8765L18.4674 57.6332L18.4277 57.4726L18.3834 57.3145L18.3298 57.1564L18.2574 56.9934L18.1501 56.8134L17.9658 56.6188L17.6602 56.4631L17.2986 56.4534L17.0257 56.5677L16.8554 56.7088L16.7387 56.8523L16.6477 57.0007L16.5684 57.1637L16.4938 57.3462L16.4214 57.5529L16.3491 57.7865L16.2745 58.0492L16.1975 58.3459L16.1205 58.6744L16.0808 58.8495C15.9899 59.1487 16.1485 59.4698 16.4354 59.5647C16.7224 59.6596 17.0303 59.4941 17.1213 59.1949" fill="#242222"/>
<path d="M40.9451 24.4428L40.9661 24.4622L40.8914 24.4136L40.8378 24.3601L40.8191 24.3552L40.8121 24.3941L40.8051 24.4671L40.7935 24.5668L40.7771 24.686L40.7561 24.8247L40.7281 24.9779L40.6955 25.1434L40.6581 25.3209L40.5905 25.608L40.4878 26.0142L40.3735 26.4375L40.2499 26.8729L40.1192 27.3084L39.9886 27.7341L39.8603 28.1428L39.7366 28.5247L39.6503 28.7874L39.5967 28.9479L39.5453 29.0988L39.4987 29.2374L39.4777 29.3007L39.0228 30.6483L38.1316 33.3631L37.2708 36.1046L36.6479 38.1796L36.2466 39.5735L35.8523 40.9698L35.4721 42.371L35.1058 43.7795L34.7512 45.1928L34.4153 46.6134L34.091 48.0389L33.8064 49.4742L33.6011 50.924L33.4191 52.3787L33.2721 53.8382L33.1485 55.3027L33.0552 56.7695L32.9922 58.2388L32.9549 59.7081L32.9502 61.1774L32.9759 62.6467L33.0272 64.1159L33.1112 65.5828L33.2255 67.0472L33.3701 68.5068L33.5474 69.9639L33.7574 71.4162L34.0023 72.8611L34.2823 74.2988L34.4363 75.0164C34.4666 75.3667 34.7629 75.627 35.0988 75.5954C35.4348 75.5637 35.6844 75.2548 35.654 74.9045L35.6867 74.1893L35.7614 72.7589L35.8523 71.3335L35.9597 69.9128L36.081 68.4971L36.2163 67.0861L36.3656 65.6801L36.5289 64.2765L36.7039 62.8753L36.8928 61.4766L37.0888 60.0803L37.2918 58.684L37.504 57.2901L37.721 55.8962L37.9426 54.5023L38.1713 53.1085L38.3952 51.7121L38.6238 50.3158L38.8011 48.9098L38.9644 47.4965L39.1394 46.0831L39.3167 44.6698L39.5057 43.2565L39.6993 41.8407L39.8976 40.4249L40.1052 39.014L40.4249 36.8952L40.8634 34.071L41.3114 31.2516L41.5377 29.8431L41.5493 29.7726L41.5727 29.6218L41.5983 29.4588L41.6263 29.2812L41.6683 28.9942L41.7266 28.5806L41.7849 28.1379L41.8409 27.6757L41.8946 27.2013L41.9412 26.7245L41.9809 26.2551L42.0112 25.8026L42.0252 25.4791L42.0299 25.2699V24.8758L42.0206 24.6909L42.0089 24.5133L41.9902 24.343L41.9622 24.1776L41.9203 24.0098L41.8526 23.8346L41.736 23.6473L41.5843 23.5038L41.561 23.4892C41.3114 23.3141 40.9708 23.3822 40.8028 23.6425C40.6348 23.9027 40.7001 24.2579 40.9498 24.433" fill="#242222"/>
<path d="M26.6188 51.3206L26.6444 51.2792L26.6887 51.2257L26.7377 51.1746L26.7984 51.1162L26.8707 51.053L26.9524 50.9849L27.0457 50.9119L27.1483 50.834L27.2626 50.7538L27.3863 50.6711L27.5193 50.5859L27.6616 50.4983L27.8132 50.4083L27.9742 50.3159L28.1445 50.221L28.3218 50.1237L28.5084 50.0264L28.7044 49.9267L28.9073 49.8245L29.1173 49.7223L29.4486 49.5642L29.9175 49.3502L30.4121 49.1312L30.9323 48.9074L31.4782 48.6788L32.0498 48.4452L32.6423 48.2068L33.2582 47.966L33.8951 47.7203L34.5483 47.4698L35.2202 47.2168L35.9084 46.9614L36.613 46.7011L37.3292 46.4383L38.0594 46.1732L38.8012 45.908L39.5548 45.6429L40.3153 45.3704L41.4748 44.9618L43.0401 44.412L44.6172 43.8574L46.1663 43.2176L47.6966 42.5413L49.2037 41.8383L50.3142 41.3031L51.0444 40.948L51.7652 40.5904L52.4791 40.2377L53.179 39.8801L53.8672 39.5298L54.5414 39.1795L55.2016 38.8341L55.8478 38.4984L56.4777 38.1651L57.089 37.8391L57.6838 37.5229L58.2577 37.2139L58.8106 36.9123L59.3425 36.6228L59.8535 36.3431L60.341 36.0755L60.6886 35.8833L60.9126 35.7593L61.1319 35.6401L61.3442 35.5233L61.5495 35.409L61.7478 35.2995L61.9391 35.1925L62.1234 35.0903L62.3007 34.993L62.471 34.8981L62.6343 34.8081L62.7883 34.723L62.9352 34.6403L63.0729 34.5624L63.1382 34.5259C63.4578 34.4165 63.6328 34.054 63.5278 33.7207C63.4228 33.3875 63.0752 33.205 62.7556 33.3145L62.6786 33.3267L62.52 33.3534L62.352 33.3826L62.177 33.4142L61.9927 33.4459L61.8014 33.4824L61.6008 33.5188L61.3932 33.5578L61.1786 33.5991L60.9546 33.6429L60.7236 33.6891L60.4857 33.7378L60.2407 33.7889L59.9888 33.8424L59.5968 33.9251L59.0533 34.0443L58.484 34.1708L57.8938 34.3094L57.2803 34.4554L56.6457 34.6111L55.9925 34.7765L55.3206 34.9492L54.6301 35.1316L53.9255 35.3263L53.2047 35.5257L52.4698 35.7325L51.7256 35.9539L50.9697 36.1801L50.2069 36.4209L49.4347 36.6666L48.6555 36.9269L47.4773 37.3307L45.9003 37.9072L44.3256 38.5349L42.7672 39.2184L41.2531 40.0017L39.7601 40.7947L38.6589 41.3932L37.9334 41.7921L37.2195 42.1959L36.5173 42.5973L35.8268 42.9962L35.1479 43.3927L34.4853 43.7868L33.8391 44.1809L33.2069 44.5701L32.5933 44.9545L31.9985 45.3364L31.4222 45.711L30.867 46.0808L30.3328 46.4456L29.8219 46.8032L29.3343 47.1535L28.8724 47.4965L28.4384 47.8298L28.1305 48.0731L27.9322 48.2336L27.7409 48.3917L27.5566 48.5474L27.3793 48.7007L27.209 48.8515L27.0457 48.9999L26.8917 49.1458L26.7447 49.2893L26.6048 49.4304L26.4718 49.5691L26.3481 49.7078L26.2315 49.844L26.1218 49.9778L26.0215 50.1116L25.9282 50.2429L25.8419 50.3743L25.7649 50.5081L25.6973 50.6419L25.6436 50.7684L25.6273 50.8146C25.4943 51.0968 25.6039 51.4373 25.8746 51.576C26.1452 51.7146 26.4718 51.6003 26.6048 51.3181" fill="#242222"/>
<path d="M41.4091 50.2745L41.4325 50.1845L41.4768 50.0167L41.5188 49.8634L41.5561 49.7223L41.5911 49.5934L41.6238 49.4791L41.6541 49.3769L41.6798 49.2869L41.7031 49.2091L41.7241 49.1434L41.7427 49.0899L41.7567 49.0509L41.7684 49.0266L41.7754 49.0193L41.7707 49.0485L41.5934 49.3112L40.5273 49.0582L40.4783 48.9026L40.469 48.9269L40.4573 49.0072L40.441 49.1215L40.42 49.2626L40.3943 49.4256L40.364 49.6056L40.3313 49.8002L40.2754 50.114L40.196 50.5591L40.1144 51.014L40.0327 51.4592L39.9744 51.773L39.9394 51.9701L39.9067 52.1525L39.8764 52.3203L39.8508 52.4687L39.8274 52.5977L39.8181 52.656L39.6595 53.5902L39.4332 54.9986L39.2979 55.9546L39.2372 56.4436L39.2279 56.5117L39.2092 56.6406L39.1882 56.7842L39.1649 56.9423L39.1392 57.115L39.1112 57.2999L39.0692 57.5991L39.0132 58.0272L38.9619 58.4894L38.9199 58.9759L38.8896 59.4795L38.8779 59.9976L38.8896 60.5255L38.9176 60.939L38.9502 61.2236L38.9922 61.4985L39.0459 61.7734L39.1136 62.0507L39.1999 62.3305L39.3049 62.6126L39.4332 62.8948L39.5871 63.177L39.7714 63.4543L39.9907 63.7243L40.2473 63.9798L40.4317 64.133C40.4596 64.1525 40.4876 64.1744 40.518 64.1914L40.5553 64.2206L40.7676 64.3495L41.0499 64.4809L41.3555 64.5782L41.6751 64.6341L41.997 64.6463L42.3097 64.6171L42.6036 64.5539L42.8742 64.4614L43.1215 64.3495L43.3455 64.223L43.5508 64.0868L43.7374 63.9457L43.91 63.7973L44.134 63.5833L44.4163 63.2767L44.6892 62.941L44.9482 62.5908L45.1955 62.2234L45.4334 61.8391L45.6667 61.4377L45.8977 61.0217L46.1263 60.5912L46.3526 60.146L46.5765 59.6862L46.8005 59.2143L47.0221 58.7327L47.2391 58.2413L47.4561 57.7426L47.7757 56.9885L48.1933 55.9692L48.5852 54.9402L48.9188 53.9113L49.1544 53.1572L49.3061 52.6682L49.453 52.1914L49.593 51.7292L49.726 51.2816L49.8543 50.8535L49.9779 50.4473L50.0969 50.0653L50.2089 49.7077L50.3115 49.3793L50.4072 49.0826L50.4958 48.8223L50.5752 48.6009L50.6428 48.4258L50.6918 48.3066L50.7151 48.2579L50.6848 48.3017L50.6195 48.3868L50.5332 48.4866L50.3815 48.6301L50.1272 48.8125L49.7167 49.0023L49.1194 49.1045L48.4359 48.9974L47.869 48.6982L47.5097 48.3576L47.3161 48.0755L47.2204 47.876L47.1761 47.7495L47.1598 47.679V47.6546L47.1644 47.6692L47.1761 47.713L47.1901 47.786L47.2041 47.8833L47.2181 48.0025L47.2321 48.1412L47.2461 48.2993L47.2578 48.4769L47.2694 48.6739L47.2811 48.888L47.2928 49.1215L47.3021 49.372L47.3114 49.6396L47.3184 49.9242L47.3254 50.2283L47.3301 50.5494L47.3371 50.8876L47.3441 51.2451L47.3511 51.6198L47.3557 52.0138L47.3604 52.4274V52.9334L47.3557 53.522L47.3441 54.4172L47.3324 55.0254L47.3138 56.0957L47.3068 58.234L47.3231 59.8468L47.3557 60.9269L47.4094 62.0069L47.4864 63.0894L47.5354 63.6343C47.5214 63.9871 47.785 64.2838 48.1209 64.2984C48.4592 64.313 48.7438 64.0382 48.7578 63.6879L48.8488 63.1673L49.0378 62.1286L49.2384 61.0947L49.446 60.0657L49.7656 58.521L50.2112 56.446L50.4282 55.4L50.5542 54.7943L50.7408 53.8675L50.8504 53.2399L50.8994 52.9382V52.9261L50.9344 52.7096L50.9998 52.2887L51.0604 51.8849L51.1164 51.4981L51.1701 51.1284L51.2191 50.7732L51.261 50.4351L51.2984 50.1116L51.3334 49.8026L51.3637 49.5083L51.3917 49.2261L51.415 48.9585L51.436 48.7031L51.4523 48.4598L51.464 48.2263L51.471 48.0049L51.4757 47.7909V47.5865L51.471 47.387L51.4617 47.19L51.4453 46.993L51.4197 46.7911L51.3824 46.577L51.3264 46.3435L51.2377 46.0783L51.0931 45.7645L50.8481 45.3923L50.4352 44.9836L49.81 44.6406L49.0634 44.5117L48.4009 44.6139L47.9203 44.8255L47.5937 45.0518L47.3674 45.2585L47.2018 45.4434L47.0548 45.6331L46.8938 45.8715L46.7305 46.144L46.5835 46.4189L46.4412 46.7035L46.2989 47.0051L46.1543 47.3262L46.0073 47.6668L45.8557 48.0268L45.704 48.4087L45.5501 48.8077L45.3914 49.2237L45.2305 49.6567L45.0648 50.1018L44.8992 50.5616L44.7335 51.0335L44.5656 51.5127L44.309 52.2449L43.9684 53.2399L43.6674 54.2543L43.3758 55.2686L43.1542 56.0155L43.0072 56.4971L42.8602 56.9666L42.7156 57.4239L42.5709 57.8642L42.4263 58.2851L42.284 58.684L42.144 59.0586L42.0064 59.4065L41.8734 59.7252L41.7451 60.0098L41.6284 60.2579L41.5258 60.4647L41.4418 60.6252L41.3695 60.7517L41.3298 60.8198V60.8369L41.3415 60.8417L41.3718 60.8344L41.4255 60.8174L41.5025 60.7955L41.6051 60.7736L41.7311 60.7566H41.8757L42.032 60.7712L42.1883 60.8101L42.3306 60.866L42.452 60.9342L42.5056 60.9779L42.4636 60.9561L42.5499 61.0144L42.6036 61.0704L42.6129 61.1093L42.6083 61.1336L42.5873 61.1385L42.5569 61.1215L42.5173 61.0825L42.473 61.0217L42.4263 60.939L42.3773 60.8369L42.3306 60.7152L42.284 60.579L42.242 60.4403L42.1813 60.1995L42.1137 59.8298L42.06 59.4332L42.0204 59.0221L41.9924 58.6037L41.9737 58.1878L41.962 57.7839L41.9574 57.4945V57.3096L41.9527 57.1296V56.9569L41.948 56.7915V56.6358L41.9434 56.5701L41.9271 56.1201L41.9061 55.1957L41.8967 53.7872V52.8409V52.1598L41.9014 51.9603V51.6368L41.9061 51.1795V50.2502L41.9014 49.9218V49.715L41.8944 49.5204L41.8897 49.3404L41.8851 49.1774L41.8781 49.029L41.8711 48.8953L41.8594 48.7566L41.8011 48.4963L40.7186 48.1995L40.5133 48.4841L40.483 48.5766L40.469 48.6374L40.4573 48.6982L40.448 48.7639L40.4387 48.8369L40.4293 48.9196L40.42 49.012L40.4107 49.1142L40.4013 49.2285L40.392 49.355L40.3827 49.4937L40.371 49.6445L40.3593 49.8075L40.3477 49.9826L40.343 50.0751C40.294 50.384 40.4946 50.6783 40.7909 50.7294C41.0872 50.7805 41.3695 50.5713 41.4185 50.2624" fill="#242222"/>
<path d="M53.8159 47.0315L53.8509 47.0218L53.8065 47.0559L53.7086 47.085L53.6292 47.0899H53.5849L53.5733 47.1118L53.5849 47.1532L53.6106 47.2188L53.6456 47.3088L53.6852 47.4183L53.7272 47.5472L53.7715 47.6956L53.8182 47.8586L53.8649 48.0386L53.9115 48.2308L53.9582 48.4376L54.0048 48.6565L54.0492 48.8876L54.1168 49.2549L54.2008 49.7755L54.2801 50.3228L54.3525 50.8969L54.4201 51.488L54.4808 52.0938L54.5344 52.7068L54.5811 53.3198L54.6207 53.9279L54.6511 54.5263L54.6697 55.1077L54.6814 55.6672V56.3119L54.6744 56.5576L54.6651 56.7911L54.6534 57.0125L54.6394 57.2217L54.6207 57.4163L54.5997 57.5938L54.5764 57.7544L54.5507 57.8931L54.5227 58.0098L54.4971 58.0998L54.4714 58.1606L54.4504 58.185L54.4388 58.1679L54.4434 58.0998L54.4831 57.9709L54.5787 57.7739L54.7677 57.5184L55.085 57.2435L55.5212 57.0271L55.9948 56.937L56.3308 56.9541L56.6154 57.0246L56.5851 57.0125L57.0003 57.19L57.4062 57.5087L57.6349 57.7885L57.7515 57.9831L57.8098 58.095L57.8378 58.1436H57.8541L57.8658 58.1023L57.8752 58.0317L57.8891 57.8687L57.9171 57.6084L57.9545 57.3165L58.0011 57.0003L58.0524 56.6743L58.1061 56.3532L58.1598 56.0467L58.1971 55.8375L58.2111 55.7086L58.2228 55.587L58.2344 55.4751L58.2437 55.3753L58.2531 55.2878L58.2601 55.2123L58.2671 55.1418L58.2717 55.0883V55.081L58.2881 54.8134L58.3231 54.3171L58.3651 53.8379L58.4094 53.3636L58.456 52.8941L58.512 52.4295L58.5704 51.9697L58.6333 51.5124L58.7057 51.0599L58.7803 50.6099L58.862 50.1623L58.9506 49.7171L59.0439 49.2744L59.1443 48.8316L59.2539 48.3913L59.3659 47.951L59.4872 47.5107L59.6178 47.0729L59.7578 46.635L59.9024 46.1971L60.0541 45.7568L60.2174 45.319L60.39 44.8811L60.5673 44.4384L60.7563 43.9956L60.9523 43.5505L61.1576 43.1053L61.3722 42.6577L61.5961 42.2077L61.8271 41.7552L62.0674 41.3003L62.317 40.8406L62.443 40.6119C62.667 40.3492 62.646 39.9454 62.394 39.7119C62.1421 39.4783 61.7548 39.5002 61.5308 39.7629L61.3139 39.9332L60.8939 40.2762L60.4857 40.6289L60.0868 40.989L59.6995 41.3587L59.3216 41.7358L58.9553 42.1226L58.5984 42.5166L58.2531 42.9204L57.9148 43.3316L57.5905 43.7524L57.2756 44.1805L56.97 44.616L56.676 45.0611L56.3961 45.516L56.1255 45.9782L55.8642 46.4477L55.6146 46.9245L55.3789 47.411L55.1526 47.9048L54.938 48.4059L54.7397 48.9143L54.5507 49.4301L54.3734 49.9531L54.2125 50.4858L54.0608 51.0234L53.9232 51.5683L53.8019 52.1205L53.6899 52.68L53.5943 53.2444L53.5149 53.816L53.4449 54.3828L53.4169 54.6504V54.6601L53.4076 54.7234L53.3983 54.811L53.3866 54.918L53.3726 55.0421L53.3563 55.1807L53.3423 55.3364L53.3353 55.5918L53.3283 55.964V56.7935L53.3423 57.2338L53.3656 57.6863L53.4006 58.1315L53.4403 58.4623L53.4753 58.7007L53.5219 58.9488L53.5826 59.2115L53.6666 59.4986L53.7879 59.8221L53.9792 60.1943L54.2941 60.6176L54.8004 61.0433L55.3276 61.2914L55.3579 61.2987C55.4513 61.3279 55.5469 61.3522 55.6426 61.3692L56.0601 61.4009L56.6877 61.3084L57.2639 61.0506L57.7095 60.6954L58.0151 60.3232L58.2158 59.9729L58.3464 59.6567L58.4327 59.3672L58.4887 59.0972L58.5237 58.8393L58.5447 58.5863L58.554 58.3358V58.0852L58.54 57.8322L58.5214 57.5768L58.4957 57.3165L58.4654 57.0514L58.4281 56.7814L58.3861 56.5065L58.3371 56.2243L58.2834 55.9372L58.2251 55.6405L58.1294 55.1929L57.9871 54.5872L57.8262 53.9717L57.6512 53.3465L57.4646 52.7189L57.2639 52.0938L57.0563 51.4734L56.8393 50.8653L56.6177 50.2717L56.3891 49.6976L56.1581 49.1479L55.9272 48.6322L55.7545 48.2673L55.6379 48.0338L55.5236 47.8099L55.4093 47.5959L55.2949 47.3915L55.1806 47.1994L55.0687 47.0169L54.9567 46.8466L54.8424 46.6885L54.728 46.5401L54.6091 46.4015L54.4854 46.2726L54.3501 46.1534L54.1938 46.0463L54.0095 45.9612L53.7926 45.9174L53.5616 45.9369L53.3866 46.0025L53.3563 46.022C53.0833 46.1558 52.9667 46.4939 53.0927 46.7785C53.221 47.0631 53.5453 47.1848 53.8182 47.0534" fill="#242222"/>
<path d="M62.0279 52.807L62.4571 52.5029L63.318 51.8948L64.1765 51.2818L65.0327 50.6542L65.8818 50.0071L66.5141 49.5011L66.9316 49.1508L67.3446 48.7932L67.7528 48.4259L68.1541 48.0464L68.5507 47.6548L68.7513 47.448C68.7513 47.448 68.763 47.4358 68.7677 47.4285L68.7816 47.4139L68.8376 47.3483L68.9006 47.2729L68.9683 47.1901L69.0453 47.0977L69.1293 46.9931L69.2226 46.8763L69.3252 46.7474L69.4349 46.6063L69.5538 46.4555L69.6798 46.2925L69.8128 46.1198L69.9528 45.9374L70.0974 45.7452L70.2467 45.5457L70.4007 45.3365L70.6387 45.0105L70.9676 44.5508L71.3082 44.0667L71.6535 43.5631L72.0011 43.0426L72.344 42.5098L72.6776 41.9674L73.0019 41.42L73.3098 40.8727L73.5315 40.4567L73.6738 40.177L73.8091 39.9045L73.9374 39.6321L74.0587 39.3596L74.173 39.0872L74.278 38.8147L74.376 38.5423L74.4646 38.2674L74.5416 37.9901L74.6069 37.7079L74.6583 37.4184L74.6956 37.1168L74.7142 36.803L74.7073 36.4697L74.6676 36.1145L74.5836 35.7351L74.4413 35.3361L74.229 34.9299L73.9374 34.5407L73.5735 34.2001L73.1605 33.9301L72.7266 33.7403L72.295 33.626L71.8798 33.5725L71.4808 33.5652L71.0982 33.5919L70.725 33.6479L70.3564 33.7282L70.0671 33.806L69.8711 33.8644L69.7685 33.8984C69.7545 33.9033 69.7428 33.9082 69.7288 33.9131L69.5469 33.9714L69.1013 34.1417L68.6393 34.3485L68.1891 34.5796L67.7505 34.835L67.3259 35.1123L66.9153 35.4115L66.5187 35.7302L66.1361 36.0683L65.7675 36.4235L65.4199 36.8005L65.098 37.2019L64.7924 37.6179L64.5031 38.0485L64.2325 38.4912L63.9782 38.9461L63.7402 39.4107L63.5163 39.8851L63.3086 40.3667L63.122 40.8605L62.9517 41.3617L62.7977 41.8676L62.6601 42.3809L62.5364 42.899L62.4338 43.4245L62.3498 43.9524L62.2822 44.4851L62.2308 45.0203L62.1958 45.5579L62.1818 46.0979V46.6379L62.2052 47.178L62.2425 47.718L62.2961 48.2581L62.3731 48.7957L62.4688 49.3308L62.5808 49.8636L62.7114 50.3914L62.863 50.9144L63.0357 51.4326L63.227 51.9434L63.4369 52.447L63.6679 52.9432L63.9175 53.4297L64.1858 53.9065L64.4774 54.3712L64.79 54.8236L65.1213 55.2639L65.4712 55.6896L65.8422 56.1007L66.2318 56.4973L66.6424 56.8743L67.0716 57.2343L67.5195 57.5773L67.9861 57.9009L68.4714 58.2025L68.9753 58.4847L69.4979 58.745L70.0391 58.9809L70.5967 59.195L71.1706 59.3847L71.7631 59.5502L72.372 59.6912L72.8433 59.7813L73.1629 59.8323L73.3262 59.8567C73.6528 59.9491 73.9887 59.7472 74.075 59.4066C74.1614 59.0661 73.9701 58.7158 73.6434 58.6258L73.5081 58.565L73.2422 58.4409L72.8549 58.2511L72.3557 57.9884L71.8821 57.7135L71.4342 57.4289L71.0096 57.137L70.6083 56.8354L70.2304 56.524L69.8758 56.2053L69.5422 55.8794L69.2296 55.5461L68.9356 55.208L68.6627 54.8625L68.4084 54.5123L68.1704 54.1595L67.9511 53.7995L67.7482 53.4346L67.5639 53.0649L67.3959 52.6902L67.2419 52.3132L67.0996 51.9337L66.9736 51.5494L66.864 51.1626L66.7683 50.7734L66.6867 50.3817L66.619 49.9876L66.563 49.5935L66.5187 49.197L66.4884 48.8005L66.4721 48.404L66.4674 48.0075L66.4721 47.611L66.4884 47.2169L66.5164 46.8253L66.5584 46.436L66.6097 46.0493L66.6704 45.6649L66.7403 45.2854L66.822 44.9108L66.9153 44.541L67.018 44.1786L67.1253 43.821L67.2443 43.4707L67.3726 43.1277L67.5102 42.792L67.6572 42.466L67.8065 42.1474L67.9628 41.8384L68.1284 41.5392L68.3011 41.2522L68.4807 40.9773L68.6627 40.7121L68.8493 40.4592L69.0406 40.2183L69.2272 39.9799L69.4139 39.7488L69.6075 39.5299L69.8058 39.3231L70.0088 39.1285L70.2164 38.9461L70.4287 38.7782L70.648 38.6226L70.8719 38.479L71.1309 38.3379L71.3059 38.2552L71.2662 38.2698L71.2989 38.2528L71.3689 38.2163L71.4598 38.1701L71.5648 38.1214L71.6278 38.0874L71.6418 38.0655L71.6045 38.0436L71.5135 38.012L71.3735 37.9536L71.1962 37.8538L71.0073 37.7055L70.8346 37.5157L70.704 37.309L70.6223 37.1143L70.5827 36.9538L70.5733 36.8395L70.5803 36.7738L70.5943 36.7543L70.6083 36.7738L70.6177 36.8297V36.9173L70.613 37.0292L70.599 37.1654L70.5757 37.3211L70.5407 37.4938L70.4963 37.6811L70.445 37.883L70.3844 38.0947L70.3144 38.316L70.2374 38.5471L70.1557 38.7807L70.0204 39.148L69.8175 39.6613L69.5958 40.1867L69.3602 40.7194L69.1153 41.2546L68.8656 41.7849L68.6114 42.3055L68.3594 42.809L68.1121 43.2931L67.9325 43.6386L67.8158 43.8575L67.7038 44.0691L67.5965 44.271L67.4916 44.4632L67.3936 44.6457L67.3003 44.8159L67.2116 44.9741L67.13 45.12L67.0553 45.2514L66.9876 45.3681L66.9293 45.4703L66.8803 45.5554L66.843 45.6211L66.8197 45.6649L66.8103 45.6844L66.7987 45.7014L66.815 45.6819L66.675 45.8814L66.3787 46.2901L66.0731 46.6939L65.7582 47.0928L65.4339 47.4894L65.105 47.8786L64.5941 48.46L63.8895 49.2311L63.1663 49.9974L62.4338 50.7636L61.6966 51.5323L61.3303 51.9191C61.0994 52.121 61.0667 52.4786 61.2603 52.7194C61.454 52.9603 61.7969 52.9943 62.0279 52.7924" fill="#242222"/>
<path d="M75.8803 23.0248L75.8546 23.0077L75.759 22.9591L75.647 22.908L75.5234 22.8545L75.3857 22.7961L75.2341 22.7328L75.0708 22.6647L74.8958 22.5942L74.6135 22.4799L74.2076 22.3193L73.783 22.1515L73.3514 21.9787L72.9292 21.8085L72.5279 21.643L72.2526 21.5238L72.087 21.4484L71.933 21.3779L71.7977 21.3122L71.6834 21.2514L71.5947 21.1979L71.5387 21.1565L71.5271 21.1346L71.5807 21.1517L71.744 21.2709L72.038 21.7501L71.9377 22.7304L71.6041 23.105L71.5014 23.1683L71.7977 23.0466L72.3879 22.8253L72.9945 22.6161L73.6197 22.4142L74.2589 22.2171L74.9075 22.0298L75.5607 21.8522L76.2116 21.6795L76.8555 21.5141L77.4877 21.3609L78.1036 21.2173L78.5491 21.1176L78.8384 21.0544L79.1207 20.9911L79.396 20.9303L79.662 20.8719L79.9186 20.816L80.1659 20.7649L80.4038 20.7162L80.6301 20.67L80.8447 20.6262L80.9451 20.6068H80.9381L81.5679 20.4827L82.809 20.2419L84.0338 19.9621L85.2469 19.641L86.4554 19.2907L87.6638 18.9283L89.4789 18.3566L91.8958 17.5417L94.3173 16.7049L96.7389 15.8L99.1581 14.8391L100.364 14.3258C100.696 14.2528 100.908 13.9147 100.838 13.5717C100.768 13.2263 100.444 13.0049 100.115 13.0779L98.8175 13.1095L96.235 13.2238L93.6594 13.3893L91.0932 13.6349L88.5317 13.939L86.6187 14.2407L85.3449 14.4815L84.0758 14.7539L82.8161 15.0775L81.5679 15.4667L80.3432 15.9216L79.7413 16.1551H79.7343L79.6293 16.1989L79.4123 16.284L79.1837 16.3765L78.9457 16.4738L78.6961 16.5759L78.4372 16.683L78.1689 16.7949L77.8936 16.9116L77.6113 17.0333L77.3197 17.1622L76.8718 17.3641L76.2606 17.6463L75.633 17.9431L74.9938 18.2544L74.3499 18.5804L73.706 18.9234L73.0645 19.2761L72.4299 19.641L71.8117 20.0181L71.2098 20.4024L70.6406 20.7916L70.3793 20.9814C70.3443 21.0008 70.3093 21.0227 70.2766 21.0446L69.9034 21.4484L69.7681 22.4896L70.0807 23.0369L70.3163 23.2315L70.4913 23.3288L70.6476 23.3921L70.8015 23.4432L70.9625 23.4869L71.1328 23.5259L71.3125 23.5624L71.5038 23.5988L71.7067 23.6329L72.024 23.6816L72.4696 23.7424L72.9315 23.7983L73.3957 23.8518L73.8483 23.9005L74.2752 23.9467L74.5715 23.9783L74.7535 23.9978L74.9215 24.0173L75.0708 24.0343L75.2014 24.0489L75.3087 24.0635L75.388 24.0732L75.4394 24.0781L75.4697 24.0854C75.7497 24.2021 76.0669 24.0635 76.1812 23.7716C76.2932 23.4797 76.1602 23.1488 75.8803 23.0296" fill="#242222"/>
<path d="M77.2197 19.4267L77.2267 19.777L77.236 20.48L77.2407 21.1903V22.6353L77.2314 23.3699L77.2197 24.1143L77.2034 24.866L77.1847 25.6249L77.1614 26.3936L77.1334 27.1696L77.1031 27.9529L77.0681 28.7411L77.0307 29.5366L76.9654 30.7456L76.8698 32.3778L76.7578 34.0296L76.6411 35.7032L76.5082 37.3938L76.3635 39.1015L76.2142 40.8262L76.0509 42.5631L75.8853 44.3121L75.7103 46.0685L75.589 47.837L75.5097 49.6152L75.435 51.3983L75.3674 53.1862L75.3044 54.9766L75.2531 56.767L75.2041 58.555L75.1597 60.3381L75.1154 62.1163L75.0758 63.8872L75.0338 65.6484L74.9988 67.3974L74.9684 69.1319L74.9334 70.8517L74.9078 72.5546L74.8961 73.3987C74.8495 73.7465 75.0804 74.0701 75.414 74.1211C75.7476 74.1698 76.0579 73.929 76.1069 73.5811L76.3239 72.7613L76.7438 71.1047L77.1427 69.4238L77.5347 67.721L77.9056 65.9987L78.2555 64.257L78.5915 62.5006L78.9064 60.7297L79.2027 58.949L79.4756 57.1587L79.7276 55.361L79.9492 53.556L80.1452 51.7486L80.3155 49.9412L80.4555 48.1337L80.5324 46.3287V44.5286L80.5138 42.7382L80.4765 40.96L80.4251 39.1964L80.3528 37.4498L80.2642 35.7226L80.1639 34.0174L80.0402 32.334L79.9026 30.6799L79.7859 29.4563L79.7043 28.6487L79.6156 27.8483L79.5246 27.0577L79.429 26.2744L79.3287 25.4984L79.2237 24.7322L79.114 23.9757L79.002 23.2288L78.8831 22.4918L78.7618 21.7644L78.6358 21.0468L78.5051 20.3389L78.3675 19.6432L78.2975 19.3026C78.2625 18.9913 77.9919 18.7675 77.6933 18.8015C77.3947 18.838 77.18 19.1202 77.2127 19.4316" fill="#242222"/>
<path d="M66.8171 34.2994L66.8288 34.3189L66.8124 34.3092L66.7635 34.2362L66.7098 34.0562L66.7635 33.7448L66.9548 33.521L67.1204 33.4456L67.1881 33.4237L67.1787 33.4018L67.1251 33.3678L67.0527 33.3215L66.9734 33.268L66.8964 33.2096L66.8311 33.1513L66.7868 33.1002L66.7751 33.0686L66.8124 33.0783L66.9081 33.195L66.9828 33.4845L66.9338 33.7643L66.8568 33.9029L66.8148 33.954L66.8871 33.8908L67.0154 33.8008L67.1484 33.7229L67.293 33.6451L67.4517 33.5697L67.6243 33.4967L67.8086 33.4261L68.0022 33.358L68.2075 33.2924L68.4222 33.2291L68.7628 33.1367L69.2364 33.0248L69.7263 32.925L70.2278 32.8326L70.7341 32.7499L71.2403 32.6696L71.7396 32.5942L72.2248 32.5188L72.5771 32.4604L72.808 32.4215L73.032 32.3801L73.249 32.3388L73.4589 32.295L73.6642 32.2488L73.7739 32.222H73.7785L74.5741 32.0298L76.1464 31.6576L77.7072 31.3001L79.2609 30.9498L80.8076 30.6068L82.338 30.2273L83.8451 29.7773L85.3405 29.2859L86.8312 28.7775L88.3219 28.2569L89.815 27.7241L91.3127 27.1792L92.8175 26.6295L94.3315 26.0748L95.8549 25.5081L97.3923 24.934L98.1645 24.6396C98.4981 24.5837 98.7244 24.2553 98.6707 23.9098C98.6171 23.562 98.3021 23.326 97.9709 23.382L97.1357 23.3576L95.4793 23.3503L93.8299 23.3868L92.1899 23.472L90.5592 23.5985L88.9355 23.7663L87.3211 23.9852L85.7184 24.2504L84.125 24.5666L82.5433 24.9364L80.9802 25.3816L79.4452 25.9338L77.9311 26.5565L76.4241 27.2084L74.924 27.8896L73.4333 28.5926L72.6937 28.9526H72.6984L72.6424 28.9818L72.4978 29.0523L72.3368 29.1278L72.1618 29.2056L71.9729 29.2883L71.7722 29.3734L71.4503 29.5072L70.9884 29.697L70.5008 29.8989L69.9945 30.1105L69.479 30.3368L68.9611 30.5751L68.4478 30.8281L67.9509 31.0957L67.5916 31.3049L67.356 31.4509L67.1274 31.6017L66.9058 31.7574L66.6911 31.9204L66.4858 32.0906L66.2899 32.2658L66.1056 32.4482L65.9329 32.6404L65.7836 32.8302L65.73 32.9104C65.716 32.9275 65.702 32.9445 65.688 32.9615L65.5923 33.1269L65.52 33.4602L65.5947 33.8348L65.7463 34.0732L65.8933 34.2119L66.0356 34.3067L66.1802 34.3822L66.3272 34.4454L66.4765 34.4989L66.6258 34.5427L66.7751 34.5792L66.9244 34.606L67.0901 34.623L67.293 34.6132L67.5287 34.5257L67.7503 34.2849L67.8179 33.9467L67.7619 33.7302L67.692 33.611L67.636 33.5453L67.6196 33.5307C67.4167 33.2972 67.0714 33.2826 66.8474 33.4943C66.6258 33.7059 66.6095 34.0659 66.8124 34.2994" fill="#242222"/>
<path d="M84.5235 49.1477L84.5748 49.1258L84.6915 49.0747L84.8175 49.0163L84.9504 48.9531L85.0904 48.8825L85.2374 48.8071L85.389 48.7269L85.5477 48.6417L85.7949 48.5031L86.1402 48.3012L86.5042 48.0798L86.8821 47.839L87.2717 47.5811L87.6683 47.3038L88.0695 47.0119L88.4708 46.7029L88.8697 46.3794L89.264 46.0388L89.6513 45.6837L90.0269 45.3139L90.3885 44.9296L90.7337 44.5306L91.058 44.1147L91.3566 43.6792L91.5689 43.3289L91.7042 43.0808L91.8255 42.84L91.9375 42.5919L92.0378 42.3364L92.1288 42.0737L92.2058 41.8013L92.2688 41.5215L92.3178 41.2345L92.3481 40.9377L92.3574 40.6336L92.3481 40.3247L92.3154 40.0109L92.2595 39.6946L92.1778 39.3784L92.0705 39.0646L91.9399 38.7556L91.7835 38.454L91.6039 38.1621L91.4033 37.8823L91.1817 37.6148L90.9414 37.3593L90.6847 37.1161L90.4118 36.885L90.2462 36.7585C90.2345 36.7512 90.2228 36.7415 90.2088 36.7342L90.1342 36.6758L89.9359 36.5371L89.7119 36.396L89.474 36.2647L89.222 36.143L88.9537 36.036L88.6691 35.9436L88.3658 35.8706L88.0486 35.8219L87.7196 35.8L87.3813 35.8073L87.0407 35.8463L86.7001 35.9168L86.3665 36.0166L86.0422 36.143L85.7273 36.2939L85.543 36.396C85.5243 36.4082 85.5057 36.4204 85.487 36.4325L85.3377 36.5152L84.9761 36.7439L84.6052 37.0115L84.2506 37.2985L83.9123 37.6026L83.5927 37.9237L83.2917 38.2618L83.0094 38.6146L82.7458 38.9819L82.5032 39.3614L82.2979 39.7627L82.1136 40.1714L81.9503 40.5874L81.8103 41.0082L81.6867 41.4339L81.5817 41.8621L81.4931 42.2926L81.4231 42.7256L81.3741 43.1611L81.3414 43.5965L81.3228 44.0344V44.4698L81.3321 44.9052L81.3624 45.3383L81.4067 45.7713L81.4627 46.2018L81.5327 46.63L81.619 47.0532L81.7194 47.4741L81.829 47.89L81.9503 48.3036L82.0833 48.7123L82.2326 49.1136L82.3912 49.5102L82.5615 49.8994L82.7412 50.2837L82.9348 50.6583L83.1401 51.0257L83.3547 51.3857L83.5764 51.7384L83.8073 52.0814L84.0476 52.4171L84.2996 52.7406L84.5608 53.052L84.8315 53.3536L85.1091 53.6431L85.396 53.9229L85.69 54.1905L85.9933 54.4435L86.3035 54.6818L86.6208 54.9056L86.9451 55.1148L87.2764 55.307L87.6146 55.4846L87.9576 55.6452L88.3052 55.7862L88.6574 55.9079L89.0144 56.0125L89.376 56.0952L89.7399 56.1584L90.1062 56.1998L90.4725 56.2192H90.8387L91.205 56.1925L91.3963 56.173C91.7346 56.1925 92.0215 55.9225 92.0402 55.5697C92.0588 55.217 91.7999 54.9178 91.4616 54.8983L91.3263 54.8594L91.0463 54.7719L90.7757 54.6697L90.5144 54.5553L90.2625 54.4313L90.0199 54.2951L89.7842 54.1467L89.5579 53.9886L89.3386 53.8183L89.1264 53.6383L88.9211 53.4509L88.7228 53.2539L88.5315 53.0447L88.3448 52.8282L88.1652 52.6044L87.9926 52.3709L87.8269 52.1301L87.6659 51.8844L87.512 51.6314L87.365 51.3711L87.2274 51.1035L87.0967 50.8286L86.9707 50.5513L86.8494 50.2691L86.7375 49.9821L86.6325 49.6902L86.5345 49.3958L86.4458 49.0966L86.3642 48.7974L86.2872 48.4958L86.2172 48.1941L86.1566 47.89L86.1052 47.586L86.0586 47.2843L86.0189 46.9827L85.9886 46.6835L85.9653 46.3843L85.9489 46.0899L85.9373 45.798V45.5085L85.9419 45.2239L85.9559 44.9442L85.9746 44.6693L86.0002 44.4017L86.0329 44.139L86.0749 43.8836L86.1239 43.6354L86.1752 43.3946L86.2312 43.1611L86.2965 42.9373L86.3665 42.7208L86.4435 42.514L86.5252 42.3145L86.6115 42.1224L86.7025 41.9399L86.7794 41.7502L86.8658 41.5677L86.9591 41.3902L87.0594 41.2174L87.169 41.0496L87.288 40.8866L87.4187 40.7285L87.561 40.5752L87.7406 40.4074L87.8736 40.3003L87.8176 40.3368H87.7989L87.8106 40.3028V40.2809L87.7919 40.2639L87.7663 40.2468L87.7383 40.2298L87.7103 40.2103L87.6893 40.1885L87.6799 40.1666L87.6846 40.1471L87.7056 40.1325L87.7429 40.1252H87.7966L87.8666 40.1422L87.9529 40.169L88.0695 40.2152L88.1535 40.2566L88.1162 40.2322L88.1605 40.2444L88.2795 40.2979L88.3798 40.3466L88.4661 40.3904L88.5385 40.4293L88.5991 40.4633L88.6504 40.495L88.6948 40.5217L88.7344 40.5485L88.7694 40.5752L88.8021 40.6044L88.8324 40.6409L88.8604 40.6847L88.8861 40.7382L88.9094 40.8015L88.9281 40.8744L88.9421 40.9596L88.9491 41.0569V41.1639L88.9397 41.2831L88.9234 41.412L88.8977 41.5483L88.8627 41.6942L88.8254 41.8353L88.7508 42.0664L88.6131 42.407L88.4451 42.7646L88.2492 43.1319L88.0299 43.5065L87.7896 43.8836L87.5306 44.2606L87.2577 44.6352L86.9731 45.005L86.6815 45.3674L86.3852 45.7202L86.0889 46.0607L85.7949 46.3867L85.5057 46.6956L85.2257 46.9851L84.9551 47.2551L84.7615 47.4424L84.6402 47.5592L84.5235 47.6687L84.4115 47.7708L84.3042 47.8657L84.2039 47.9533L84.1106 48.0336L84.0219 48.1065L83.9776 48.143C83.7163 48.2987 83.6253 48.6466 83.777 48.919C83.9263 49.1915 84.2599 49.2864 84.5212 49.1282" fill="#242222"/>
<path d="M102.179 36.8442L102.205 36.8053L102.242 36.7688L102.287 36.7323L102.347 36.6836L102.424 36.6252L102.515 36.5596L102.618 36.489L102.732 36.4136L102.924 36.292L103.204 36.1193L103.502 35.9368L103.815 35.7422L104.132 35.5354L104.447 35.3141L104.753 35.0757L104.977 34.8762L105.124 34.7303L105.259 34.5794L105.387 34.4189L105.506 34.2462L105.616 34.0564L105.711 33.8497L105.786 33.6234L105.837 33.3753L105.858 33.1101L105.851 32.9374C105.851 32.918 105.847 32.8985 105.844 32.8791L105.84 32.8134L105.809 32.6188L105.753 32.4047L105.677 32.1955L105.576 31.9936L105.455 31.8038L105.313 31.6287L105.154 31.473L104.981 31.3368L104.799 31.2225L104.61 31.1276L104.419 31.0522L104.225 30.9938L104.032 30.95L103.838 30.9208L103.645 30.9038L103.449 30.8965H103.253L102.97 30.9159L102.585 30.967L102.184 31.0497L101.781 31.1592L101.375 31.293L100.966 31.4487L100.558 31.6263L100.15 31.8257L99.7439 32.0471L99.3426 32.2879L98.9484 32.5482L98.5611 32.828L98.1855 33.1272L97.8239 33.4458L97.4763 33.784L97.145 34.1416L96.8348 34.5186L96.5478 34.92L96.2865 35.3433L96.0556 35.7933L95.8993 36.1704L95.8083 36.4404L95.736 36.6982L95.6753 36.9658L95.6286 37.2407L95.5983 37.5204L95.589 37.6932C95.589 37.7126 95.589 37.7345 95.589 37.754V38.0848L95.61 38.3621L95.6426 38.6346L95.687 38.9022L95.7406 39.1649L95.8036 39.4252L95.8736 39.6854L95.9506 39.9457L96.0346 40.206L96.1232 40.4663L96.2189 40.7266L96.3658 41.111L96.5805 41.6315L96.8138 42.1643L97.0634 42.6994L97.3247 43.237L97.593 43.7746L98.0035 44.5774L98.5564 45.6404L98.9647 46.4189L99.2237 46.92L99.4709 47.4089L99.7042 47.8784L99.9189 48.3285L100.112 48.7517L100.238 49.0436L100.311 49.2236L100.388 49.3964L100.46 49.5569L100.523 49.7077L100.577 49.8464L100.621 49.9705L100.656 50.0799L100.684 50.1699L100.703 50.2405L100.712 50.2867V50.2989L100.707 50.2575V50.1772L100.714 50.058L100.742 49.8999L100.798 49.7077L100.892 49.4961L101.022 49.2845L101.16 49.119L101.277 49.0047L101.197 49.0801L101.181 49.0874L101.186 49.0753L101.155 49.085L101.092 49.1117L100.999 49.1458L100.878 49.1823L100.733 49.2163L100.57 49.2455L100.39 49.2674L100.199 49.282L100.001 49.2869H99.7976L99.5923 49.2796L99.3893 49.2626L99.1933 49.2358L99.0044 49.1993L98.8271 49.1555L98.6661 49.1069L98.5215 49.0534L98.3978 49.0023L98.2975 48.9512L98.2205 48.905L98.1692 48.8685L98.1435 48.8466L98.1575 48.8661L98.1785 48.8977L98.1832 48.9098L98.1878 48.9269L98.1948 48.9488L98.2019 48.9731L98.2065 48.9974V49.0631L98.2019 49.0753L98.1972 49.0801L98.1925 49.0753V49.0582L98.1832 49.0753L98.1692 49.1336L98.2135 48.9171L98.2952 48.5668L98.3885 48.2409L98.4981 47.9076L98.6241 47.567L98.7688 47.2192L98.932 46.8665L99.114 46.5113L99.3146 46.1513L99.5316 45.7888L99.7602 45.4215L100.003 45.0517L100.257 44.6796L100.525 44.3074L100.952 43.743L101.545 42.9913L102.158 42.2445L102.786 41.4977L103.418 40.7558L104.046 40.0187L104.508 39.469L104.811 39.1041L105.105 38.7416L105.392 38.3816L105.67 38.024L105.935 37.6664L106.066 37.4864C106.302 37.2334 106.297 36.8296 106.054 36.5839C105.812 36.3382 105.425 36.3431 105.189 36.5961L105.033 36.725L104.706 36.9877L104.368 37.2553L104.02 37.5253L103.663 37.7978L103.297 38.0726L102.735 38.4935L101.963 39.0724L101.176 39.6709L100.383 40.2936L99.5923 40.9431L98.8154 41.6169L98.2485 42.1424L97.8752 42.5048L97.509 42.877L97.1497 43.2589L96.7998 43.653L96.4638 44.0593L96.1396 44.4777L95.8293 44.9107L95.533 45.3558L95.253 45.8156L94.9918 46.2899L94.7515 46.7813L94.5368 47.2897L94.3549 47.786L94.2849 47.9952C94.2802 48.0147 94.2755 48.0341 94.2709 48.0536L94.2289 48.219L94.1706 48.4914L94.1286 48.7688L94.1052 49.0485L94.1006 49.3283L94.1146 49.608L94.1472 49.8853L94.1962 50.1578L94.2639 50.4229L94.3479 50.6808L94.4482 50.9289L94.5625 51.1649L94.6885 51.3911L94.8425 51.6295L95.0827 51.9457L95.4 52.2936L95.736 52.6001L96.0859 52.8677L96.4475 53.1036L96.8184 53.3104L97.1964 53.488L97.5813 53.6412L97.9709 53.7726L98.3651 53.8845L98.7641 53.9769L99.1677 54.0499L99.5736 54.1034L99.9819 54.1375L100.39 54.1496L100.798 54.1424L101.209 54.1132L101.62 54.0621L102.03 53.9891L102.441 53.8894L102.851 53.758L103.262 53.5926L103.673 53.381L104.078 53.1182L104.419 52.8458L104.501 52.7728C104.54 52.7363 104.58 52.6974 104.617 52.6585L104.83 52.4128L105.091 52.0284L105.292 51.6271L105.432 51.2257L105.518 50.8413L105.562 50.4789L105.574 50.1383L105.562 49.8196L105.532 49.5204L105.488 49.2358L105.432 48.9634L105.366 48.7006L105.292 48.4428L105.208 48.1922L105.119 47.9441L105.023 47.6984L104.923 47.4527L104.816 47.2095L104.701 46.9662L104.571 46.7205L104.37 46.3581L104.092 45.8813L103.799 45.3996L103.493 44.9155L103.178 44.429L102.856 43.9401L102.368 43.2127L101.718 42.2518L101.244 41.5415L100.943 41.0818L100.656 40.6342L100.388 40.2012L100.136 39.7876L99.9049 39.3887L99.7486 39.1041L99.6553 38.9289L99.5713 38.7611L99.4943 38.6029L99.4266 38.4546L99.366 38.3159L99.3146 38.1918L99.2727 38.0799L99.2377 37.9851L99.2097 37.9072L99.1887 37.8488L99.1723 37.7783L99.1653 37.7004V37.7613H99.1583L99.1467 37.7029L99.1397 37.6348V37.5594L99.1443 37.4767L99.149 37.4085L99.17 37.2772L99.233 37.0558L99.3263 36.8174L99.4476 36.5669L99.5969 36.3066L99.7719 36.0414L99.9702 35.7763L100.189 35.5136L100.427 35.2557L100.679 35.0027L100.943 34.7594L101.214 34.5284L101.491 34.3118L101.771 34.1124L102.049 33.9299L102.322 33.7669L102.585 33.6234L102.837 33.5042L103.073 33.4069L103.297 33.3315L103.451 33.2902L103.537 33.2707L103.614 33.2561L103.682 33.2439L103.738 33.2366L103.782 33.2293L103.817 33.2245L103.841 33.2172L103.855 33.2074L103.861 33.1953V33.1345L103.868 33.115L103.878 33.1028H103.894L103.913 33.1126L103.936 33.1637L103.952 33.2269L103.945 33.1685L103.952 33.1247L103.971 33.1174L103.987 33.1272L103.997 33.1539V33.2002L103.983 33.2634L103.955 33.3388L103.913 33.4264L103.857 33.5237L103.792 33.621L103.668 33.784L103.46 34.0175L103.222 34.2583L102.966 34.5016L102.697 34.7448L102.427 34.9881L102.163 35.2265L101.977 35.4017L101.855 35.5208L101.739 35.64L101.629 35.7592L101.524 35.8809L101.426 36.0098L101.337 36.146L101.267 36.2774L101.249 36.3212C101.104 36.5961 101.202 36.9439 101.466 37.0923C101.729 37.2431 102.063 37.141 102.205 36.8661" fill="#242222"/>
<path d="M112.782 17.1693L112.796 17.1572L112.878 17.0672L112.971 16.9212L113.055 16.7339L113.116 16.5442L113.163 16.3593L113.205 16.1744L113.263 15.902L113.321 15.6392L113.363 15.486L113.407 15.3522L113.452 15.2476L113.491 15.1868H113.505L113.496 15.2208L113.48 15.2525L113.442 15.2963L113.384 15.3449L113.307 15.3838L113.233 15.4033L113.172 15.4082H113.202L113.179 15.4179H113.118L113.055 15.4057L112.997 15.3911L112.941 15.3741H112.911V15.4227L112.918 15.5176L112.927 15.649L112.934 15.812V16.206L112.922 16.4274L112.899 16.7826L112.852 17.2691L112.827 17.505V17.4953L112.775 17.9332L112.661 18.7919L112.533 19.6409L112.39 20.4874L112.236 21.3339L112.073 22.1781L111.809 23.4479L111.436 25.1385L111.051 26.8316L110.664 28.5369L110.288 30.2567L110.109 31.13V31.1349L110.057 31.3781L109.955 31.8719L109.845 32.3828L109.731 32.9131L109.61 33.4604L109.484 34.0248L109.353 34.6062L109.22 35.2046L109.087 35.8176L108.952 36.4477L108.814 37.0899L108.674 37.7467L108.534 38.4156L108.394 39.0968L108.254 39.79L108.116 40.4955L107.981 41.2131L107.848 41.9405L107.718 42.6775L107.592 43.4243L107.468 44.1784L107.37 44.9423L107.288 45.7158L107.218 46.4967L107.127 47.6741L107.032 49.2601L106.98 50.8681L106.966 52.0868L106.976 52.9042L106.994 53.7166L107.025 54.5291L107.069 55.3392L107.13 56.1492L107.202 56.9569L107.286 57.762L107.389 58.5648L107.505 59.3627L107.638 60.1557L107.787 60.9439L107.955 61.7247L108.14 62.4983L108.34 63.2646L108.557 64.0211L108.793 64.7704L109.052 65.5074L109.33 66.2323L109.626 66.9475L109.941 67.6481L110.277 68.3365L110.636 69.0079L111.016 69.6647L111.418 70.3045L111.842 70.9272L112.288 71.5305L112.757 72.1144L113.125 72.5425L113.38 72.8222L113.636 73.0922L113.9 73.3574L114.168 73.6153L114.441 73.8682L114.721 74.1139L115.008 74.3548L115.299 74.5883L115.598 74.817L115.901 75.0383L116.212 75.2524L116.37 75.3594C116.634 75.5784 117.019 75.5346 117.229 75.2597C117.439 74.9848 117.397 74.5834 117.133 74.3645L117.014 74.238L116.776 73.9801L116.545 73.7199L116.319 73.4571L116.1 73.192L115.887 72.9244L115.682 72.6544L115.481 72.3819L115.288 72.1046L115.101 71.8249L114.919 71.5427L114.747 71.2629L114.497 70.8372L114.18 70.2534L113.883 69.6599L113.608 69.0541L113.351 68.4411L113.114 67.8184L112.897 67.1835L112.696 66.5413L112.512 65.8893L112.346 65.2301L112.197 64.5611L112.064 63.8824L111.942 63.1989L111.835 62.508L111.744 61.8099L111.667 61.1044L111.604 60.3917L111.55 59.6741L111.509 58.9516L111.481 58.2242L111.464 57.492L111.455 56.755V56.0154L111.469 55.2711L111.49 54.5243L111.515 53.7775L111.55 53.0282L111.595 52.2838L111.667 51.1624L111.791 49.6615L111.931 48.1606L112.05 47.0392L112.134 46.2997L112.218 45.5626L112.292 44.8304L112.353 44.1006L112.416 43.3757L112.481 42.6556L112.549 41.9429L112.619 41.2374L112.691 40.5393L112.764 39.8509L112.836 39.1722L112.911 38.5032L112.985 37.844L113.06 37.1969L113.135 36.562L113.209 35.9392L113.279 35.3287L113.347 34.7302L113.412 34.1464L113.475 33.5772L113.536 33.0226L113.592 32.485L113.643 31.9644L113.666 31.7163V31.7211L113.748 30.8673L113.928 29.1353L114.114 27.3887L114.299 25.6299L114.464 23.8614L114.567 22.5284L114.623 21.6332L114.667 20.7355L114.698 19.8355L114.712 18.933L114.707 18.0354L114.698 17.5926V17.5829L114.691 17.3104L114.665 16.768L114.635 16.3617L114.607 16.0893L114.572 15.8217L114.53 15.559L114.476 15.3011L114.408 15.0481L114.32 14.8L114.198 14.5519L114.026 14.3086L113.804 14.1067L113.603 13.9948L113.438 13.9389L113.268 13.9121H113.095C113.074 13.917 113.055 13.917 113.034 13.9218L112.908 13.9486L112.733 14.0167L112.584 14.1116L112.463 14.221L112.369 14.3354L112.288 14.4619L112.206 14.6346L112.138 14.8389L112.094 15.0408L112.064 15.2403L112.043 15.4398L112.022 15.722L112.005 15.9822L111.996 16.1306L111.987 16.2523L111.982 16.3301L111.987 16.3617L112.012 16.3447L112.043 16.3204L112.031 16.335C111.809 16.5466 111.793 16.9066 111.996 17.1402C112.199 17.3713 112.544 17.3883 112.768 17.1766" fill="#242222"/>
<path d="M101.221 25.6639L102.317 25.8683L104.505 26.2648L106.691 26.654L108.875 27.0311L111.054 27.4081L113.23 27.7754L115.407 28.1355L117.581 28.4857L119.763 28.7047L121.949 28.8604L124.142 28.9163H126.341L128.546 28.892L130.758 28.8312L132.976 28.7363L135.202 28.6098L136.317 28.5344C136.653 28.5758 136.956 28.3252 136.996 27.9749C137.036 27.6246 136.795 27.3084 136.459 27.267L135.384 26.924L133.228 26.2794L131.063 25.6931L128.889 25.1653L126.708 24.7006L124.519 24.2847L122.324 23.949L120.12 23.7349L117.908 23.6084L115.687 23.6376L113.466 23.696L111.245 23.7835L109.024 23.9027L106.806 24.0438L104.587 24.2165L102.371 24.416L101.263 24.5279C100.962 24.5158 100.707 24.759 100.696 25.0728C100.684 25.3866 100.917 25.6518 101.218 25.6639" fill="#242222"/>
</svg>
