<svg width="209" height="135" viewBox="0 0 209 135" fill="none" xmlns="http://www.w3.org/2000/svg">
<path d="M98.9644 134.169C98.6014 134.169 97.4554 133.237 96.7329 133.237C97.0959 133.237 98.2419 134.169 98.9644 134.169Z" fill="#242222"/>
<path d="M108.174 66.1451C111.697 60.4717 112.402 54.4192 109.748 52.6265C107.093 50.8338 102.085 53.9798 98.5608 59.6532C95.0369 65.3266 94.3321 71.379 96.9865 73.1717C99.641 74.9644 104.65 71.8185 108.174 66.1451Z" fill="#00AFE2"/>
<path d="M136.557 67.184C139.058 63.1783 139.329 58.7391 137.162 57.2689C134.996 55.7986 131.213 57.854 128.713 61.8598C126.212 65.8655 125.941 70.3047 128.107 71.7749C130.274 73.2452 134.057 71.1898 136.557 67.184Z" fill="#00AFE2"/>
<path d="M181.835 84.575L181.856 84.7012L181.938 85.1057L182.059 85.5436L182.209 85.9592L182.383 86.3489L182.582 86.7162L182.806 87.0577L183.052 87.3731L183.315 87.6626L183.6 87.926L183.899 88.1635L184.212 88.3788L184.54 88.5718L184.885 88.7388L185.241 88.8835L185.611 89.006L185.832 89.0653C185.874 89.0765 185.917 89.0839 185.96 89.0913L186.049 89.1099L186.515 89.1618L187.074 89.147L187.618 89.0653L188.141 88.928L188.643 88.7462L189.124 88.5309L189.583 88.2934L190.024 88.0337L190.451 87.7516L190.864 87.4548L191.266 87.1393L191.658 86.8127L192.038 86.4676L192.412 86.1076L192.775 85.7328L193.27 85.1799L193.775 84.5453L194.135 84.0443L194.448 83.5693L194.747 83.0646L195.028 82.5265L195.291 81.955L195.523 81.3427L195.715 80.6932L195.857 80.0067L195.932 79.2905V78.5594L195.832 77.8395L195.64 77.1529L195.352 76.5257L195.113 76.1546C195.074 76.1064 195.035 76.0582 194.996 76.0136L194.893 75.8578L194.508 75.4124L194.007 74.9782L193.441 74.6146L192.811 74.3399L192.124 74.1618L191.394 74.0913L190.633 74.1284L189.864 74.2657L189.099 74.4921L188.351 74.8001L187.629 75.1786L186.938 75.6128L186.284 76.0953L185.664 76.6222L185.084 77.1863L184.54 77.7838L184.034 78.4109L183.572 79.0715L183.155 79.7581L182.792 80.4706L182.49 81.2091L182.255 81.9624L182.095 82.7232L182.02 83.4839L182.034 84.2299L182.141 84.9461L182.34 85.6178L182.628 86.2264L183.002 86.7571L183.451 87.1987L183.967 87.5401L184.276 87.7219C184.91 88.8093 186.405 88.7944 187.618 87.6923C188.832 86.5864 189.298 84.8125 188.668 83.7252L188.821 83.6361L189.077 83.406L189.341 83.2427L189.593 83.1425L189.828 83.0943L190.035 83.0869L190.206 83.1054L190.337 83.1425L190.433 83.1908L190.497 83.239L190.529 83.2798L190.537 83.3132L190.522 83.3355L190.49 83.3503L190.448 83.3578H190.391L190.323 83.3689L190.241 83.3763L190.141 83.3874L190.024 83.4023L189.885 83.4208L189.729 83.4357L189.551 83.4431L189.362 83.4357L189.17 83.406L188.985 83.354L188.825 83.2724L188.7 83.1722L188.622 83.0609L188.593 82.957L188.615 82.8753L188.732 82.8902L188.874 83.0015L188.757 82.8605L188.65 82.6601L188.583 82.404L188.544 82.1146V81.8177L188.579 81.5356L188.64 81.287L188.714 81.0866L188.793 80.9382L188.864 80.8417L188.924 80.7934L188.963 80.786L188.985 80.812V80.8677L189.006 80.8973L188.949 81.0495L188.832 81.2573L188.764 81.3724L188.689 81.4837L188.611 81.5913L188.533 81.6915L188.458 81.7806L188.39 81.8548L188.337 81.9142L188.301 81.9587L188.287 81.9884L188.301 81.9995H188.558L188.714 82.0255L188.8 82.0552L188.707 82.0403L188.835 82.0663H188.807L188.693 82.0441L188.59 82.0181L188.494 81.9884L188.408 81.955L188.33 81.9179L188.262 81.8771L188.205 81.8362L188.156 81.7954L188.113 81.7546L188.077 81.7175L188.045 81.6804L188.02 81.647L187.999 81.6136L187.981 81.5802L187.96 81.4948L187.942 81.3649C187.668 79.6319 186.077 78.9453 184.383 79.8286C182.689 80.7118 181.539 82.8308 181.81 84.5639" fill="#00AFE2"/>
<path d="M201 2.11529L200.971 2.09674L201.292 1.96314L201.808 2.26744L201.9 2.58288L201.964 2.67937L202.064 2.6905L202.263 2.62741L202.569 2.49011L202.705 2.3194L202.786 2.14869L202.872 1.92974L202.957 1.56235L202.897 0.764478L201.818 0L201.032 0.222664C200.954 0.263486 200.875 0.31544 200.8 0.367395L200.704 0.404507L200.281 0.697677L199.836 1.09105L199.448 1.50297L199.106 1.92974L198.804 2.36764L198.519 2.81297L198.249 3.26943L197.989 3.73331L197.736 4.20832L197.505 4.69818L197.281 5.19546L196.957 5.94137L196.533 6.9619L196.152 7.99728L195.793 9.0141L195.455 9.99382L195.224 10.6915L195.081 11.1294L194.946 11.545L194.818 11.931L194.697 12.2872L194.587 12.6064L194.487 12.8847L194.401 13.1148L194.33 13.2855L194.284 13.3783L194.291 13.3375L194.309 13.2929L193.917 14.1725L193.223 15.9834L192.561 17.813L191.921 19.6499L191.302 21.4906L190.704 23.335L190.127 25.1831L189.572 27.0349L189.038 28.8904L188.529 30.7534L188.042 32.62L187.579 34.4904L187.141 36.3644L186.728 38.2459L186.34 40.1311L185.981 42.0201L185.646 43.9164L185.34 45.8165L185.081 47.7165L184.892 49.6128L184.771 51.5055L184.7 53.3944L184.675 55.2796L184.685 57.1611L184.746 59.0352L184.874 60.8981L185.077 62.7425L185.34 64.572L185.678 66.383L186.024 68.1977L186.365 70.0198L186.686 71.8605L186.842 72.7883C186.867 73.126 187.145 73.2855 187.465 73.1482C187.785 73.0109 188.024 72.625 187.999 72.291L188.013 71.3076L188.099 69.3296L188.273 67.3442L188.511 65.3625L188.807 63.3882L189.091 61.4473L189.376 59.5324L189.647 57.6435L189.91 55.7769L190.184 53.9288L190.476 52.0918L190.778 50.2697L191.092 48.4587L191.391 46.6626L191.672 44.8813L191.96 43.1074L192.273 41.3372L192.611 39.5708L192.974 37.808L193.359 36.049L193.768 34.2937L194.199 32.5421L194.654 30.7905L195.131 29.0426L195.629 27.2984L196.149 25.5542L196.69 23.8137L197.252 22.0732L197.836 20.3365L198.441 18.6034L199.064 16.8704L199.69 15.1225L199.971 14.2244C199.971 14.2244 199.982 14.1947 199.989 14.1799L200.064 13.9498L200.163 13.6084L200.249 13.2707L200.331 12.9255L200.405 12.5656L200.477 12.1907L200.548 11.8011L200.619 11.3966L200.694 10.9772L200.768 10.5468L200.879 9.8862L201.021 8.977L201.171 8.06038L201.327 7.15488L201.47 6.27165L201.583 5.64077L201.658 5.25483L201.733 4.89115L201.793 4.55344L201.85 4.24914L201.904 3.98565L201.946 3.7667L201.975 3.5997V3.48466L201.922 3.42528H201.822L201.747 3.39932L201.829 3.31396L201.598 3.45868L200.857 3.65537L199.836 2.88719L199.797 2.14498L199.868 1.8815L199.911 1.80728H199.932L199.95 1.94458L200.082 2.23405L200.163 2.47155L200.199 2.6571L200.22 2.89832L200.299 3.31767L200.833 3.68135L201.21 3.54776L201.228 3.50693C201.601 3.30282 201.85 2.83152 201.783 2.44929C201.715 2.07076 201.356 1.92603 200.982 2.13014" fill="#00AFE2"/>
<path d="M16.1434 61.7698L16.3747 61.6288L16.8445 61.3468L17.325 61.0647L17.8161 60.779L18.3179 60.4895L18.8304 60.1964L19.3536 59.9032L19.8874 59.6063L20.7096 59.1573L21.8413 58.5524L23.0051 57.9437L24.2009 57.3314L25.4288 56.7117L26.6851 56.0957L27.9627 55.4722L29.2653 54.8525L30.5893 54.2401L31.9274 53.6204L33.2834 53.0081L34.6465 52.3958L36.0167 51.7909L37.3406 51.0858L38.6503 50.3473L39.9493 49.5902L41.2448 48.822L42.5332 48.0538L43.8144 47.2819L45.0849 46.51L46.3484 45.7419L47.6047 44.9885L48.8503 44.2426L50.0853 43.519L51.3096 42.8101L52.5196 42.1199L53.7154 41.4556L54.897 40.8136L55.4771 40.5019C55.9754 40.372 56.2815 39.845 56.1569 39.3218C56.0323 38.8022 55.527 38.4831 55.0252 38.613L54.3347 38.6315L52.9432 38.7132L51.5231 38.8505L50.0817 39.036L48.6226 39.2735L47.1492 39.563L45.6651 39.8933L44.1774 40.2792L42.6826 40.7023L41.1914 41.1736L39.7038 41.6931L38.2268 42.2609L36.7641 42.8732L35.3191 43.5301L33.9027 44.2426L32.5182 45.0145L31.2085 45.9163L29.9202 46.8329L28.6603 47.7681L27.4253 48.707L26.2224 49.6644L25.0479 50.6256L23.902 51.5867L22.7951 52.5553L21.7239 53.5165L20.6918 54.4776L19.6988 55.4314L18.7521 56.374L18.0724 57.0717L17.631 57.5355L17.2004 57.9957L16.784 58.4522L16.3783 58.9049L15.9868 59.3502L15.6096 59.7918L15.2465 60.226L15.0721 60.4413C14.7198 60.7493 14.6735 61.2985 14.9689 61.6659C15.2643 62.0333 15.7911 62.0816 16.1434 61.7735" fill="#242222"/>
<path d="M25.3047 49.5306L25.1872 49.9463L24.9452 50.7961L24.6925 51.6719L24.4292 52.5774L24.1551 53.5089L23.874 54.4663L23.5857 55.4497L23.2903 56.4591L22.9878 57.4908L22.6782 58.5485L22.3614 59.6284L22.0411 60.7268L21.7172 61.8476L21.3898 62.9868L21.0588 64.1447L20.7278 65.3211L20.3969 66.5123L20.0623 67.7184L19.5605 69.5554L18.9021 72.0492L18.2437 74.5876L17.6066 77.1667L16.9874 79.7756L16.393 82.4104L15.8307 85.0601L15.393 87.732L15.0798 90.4151L14.8876 92.4302L14.7772 93.7699L14.6847 95.0984L14.6135 96.4233L14.553 97.7407L14.5174 99.0507L14.4961 100.35V101.637L14.5068 102.914L14.5352 104.176L14.5922 105.423L14.6634 106.655L14.7488 107.868L14.852 109.067L14.9801 110.243L15.126 111.401L15.2862 112.537L15.4677 113.65L15.6705 114.737L15.8912 115.799L16.1368 116.834L16.4001 117.84L16.6884 118.816L16.9945 119.762L17.3255 120.675L17.6778 121.554L18.0515 122.397L18.4501 123.202L18.6601 123.599C18.8487 124.1 19.3897 124.349 19.8666 124.152C20.347 123.955 20.5855 123.391 20.3969 122.894L20.315 122.512L20.162 121.707L20.0303 120.875L19.9235 120.018L19.8381 119.135L19.7705 118.229L19.7278 117.298L19.6993 116.344L19.6922 115.364L19.7029 114.362L19.7313 113.338L19.774 112.295L19.831 111.23L19.9057 110.147L19.9983 109.045L20.0943 107.924L20.2082 106.785L20.3364 105.63L20.4787 104.461L20.6211 103.278L20.7777 102.079L20.9414 100.869L21.1122 99.6445L21.2937 98.4087L21.4717 97.1618L21.6603 95.9075L21.8525 94.642L22.0447 93.3765L22.3401 91.4579L22.7351 88.8713L23.0625 86.2588L23.3188 83.6239L23.5893 80.9891L23.8669 78.3617L24.1516 75.7528L24.4363 73.1662L24.7317 70.6167L24.9452 68.7315L25.0876 67.4921L25.2299 66.2674L25.3687 65.0576L25.504 63.8627L25.6392 62.6826L25.7673 61.521L25.8955 60.378L26.0165 59.2573L26.1339 58.1588L26.2478 57.0826L26.3581 56.0287L26.4613 55.0007L26.561 53.9987L26.6535 53.0227L26.7389 52.0727L26.8172 51.1524L26.8884 50.2654L26.9205 49.8349C27.0059 49.3636 26.7069 48.9109 26.2549 48.8218C25.8029 48.7328 25.3687 49.0445 25.2833 49.5158" fill="#242222"/>
<path d="M5.17118 90.1484L5.04662 90.1595L4.76902 90.1966L4.35618 90.2746L3.82234 90.4082L3.30629 90.5603L2.81159 90.7162L2.3418 90.8572L1.89693 90.9722L1.47341 91.0502L1.29546 91.0687L1.34173 91.0576L1.28123 91.065L1.25276 91.0576L1.33818 91.039L1.59442 91.0576L2.12115 91.3359L2.52331 92.1152L2.47705 92.6756L2.38807 92.8909L2.35604 92.9614H2.37028L2.4201 92.9354L2.49484 92.8834L2.59093 92.8203L2.70482 92.7461L2.90768 92.6162L3.21375 92.427L3.54829 92.2229L3.90419 92.0113L4.26721 91.7961L4.62666 91.5846L4.96833 91.3767L5.21033 91.2283L5.36693 91.1318L5.51284 91.039L5.65165 90.9463L5.72283 90.898L6.50223 90.3785L8.05039 89.3765L9.60566 88.4079L11.1752 87.4579L12.7518 86.519L14.3427 85.595L16.7485 84.207L18.3572 83.283H18.35L19.674 82.5296L22.3183 81.0267L24.9697 79.5423L27.6319 78.069L30.2762 76.5549L32.8813 74.9703L35.4687 73.3448L38.0525 71.712L39.9886 70.491L41.2769 69.6783L42.5724 68.8619L43.8714 68.0492L45.1705 67.2365L46.473 66.4275L47.7792 65.6296L49.0853 64.828L50.395 64.0338L51.7118 63.2471L53.0287 62.4604L54.349 61.681L55.673 60.9092L57.0005 60.141L58.3315 59.3802L59.6661 58.6232L60.3317 58.2446C60.8157 58.0591 61.0613 57.4987 60.8833 56.994C60.7054 56.4893 60.168 56.2332 59.6839 56.4188L58.9259 56.5895L57.4204 56.9532L55.9185 57.3391L54.4202 57.7511L52.9254 58.1852L51.4342 58.6417L49.9502 59.1204L48.4696 59.6251L46.9962 60.1447L45.5264 60.6828L44.0636 61.2506L42.6044 61.8295L41.1524 62.4307L39.711 63.0541L38.2767 63.6961L36.846 64.3604L34.7213 65.3921L31.9275 66.8282L29.1764 68.3386L26.4894 69.9529L23.8878 71.6971L21.3538 73.5341L18.859 75.4045L16.4069 77.2971L15.2039 78.2471H15.1968L13.7163 79.4272L11.5062 81.2048L10.0434 82.4146L8.5878 83.6429L7.14997 84.8973L5.72994 86.1776L4.33839 87.4839L3.66218 88.1407L3.63015 88.1778L3.53762 88.2669L3.43085 88.3671L3.3134 88.4747L3.1141 88.6528L2.8187 88.9163L2.50552 89.1947L2.17809 89.4841L1.85066 89.7773L1.53036 90.0667L1.22784 90.3488L1.01787 90.5529L0.882629 90.6865L0.754505 90.8201L0.629939 90.9537L0.505373 91.091L0.37725 91.2469L0.23845 91.451L0.0782978 91.7812L0 92.4381L0.412842 93.2916L0.992956 93.6182L1.34885 93.6627L1.58374 93.6442L1.75813 93.6071L1.81863 93.5885C1.81863 93.5885 1.85067 93.5811 1.8649 93.5774L2.16741 93.4735L2.68702 93.2545L3.16392 93.017L3.6088 92.7721L4.02876 92.5346L4.43092 92.3119L4.82953 92.1115L5.13203 91.9816L5.33846 91.9037L5.45946 91.8666C5.91145 91.7812 6.2104 91.3285 6.12855 90.8535C6.04669 90.3822 5.6125 90.0705 5.15695 90.1558" fill="#242222"/>
<path d="M26.1334 90.2932L26.233 90.0371L26.4181 89.5807L26.5889 89.1836L26.7455 88.8459L26.8843 88.5638L27.0089 88.3375L27.1156 88.1705L27.1975 88.0628L27.2473 88.022V88.0554L27.1477 88.163L26.8843 88.3004L26.4715 88.3226L26.1298 88.1816L25.9661 88.0443L25.9092 87.9849L25.8949 88.0035V88.0777L25.9092 88.1964L25.9198 88.3523L25.9341 88.6418L25.9447 89.0945V90.1336L25.9305 90.6865L25.9198 91.2358V91.5067H25.9163V91.7256L25.9056 92.1376L25.8985 92.5161L25.8913 92.8612V93.1766L25.8807 93.4624V93.7185L25.8736 93.9448V94.1452L25.8664 94.3197V94.7056L25.8593 94.7909V94.9876L29.1158 94.8503V94.5646L29.1229 94.4087V94.2269L29.1336 93.9189L29.1443 93.4921L29.1549 93.1989L29.162 93.0356L29.1692 92.9095V92.8575H29.1763V92.9095L29.1443 93.1841L25.9341 93.8149L25.6849 93.1915L25.6707 93.1247V94.0896L25.6778 94.3345V96.6724H25.6814V96.9805L25.692 97.5891L25.7063 98.1828L25.7276 98.7543L25.7526 99.3073L25.7846 99.8417L25.8202 100.354L25.8629 100.847L25.9127 101.322L25.9661 101.783L26.0266 102.224L26.0942 102.651L26.1654 103.063L26.2437 103.46L26.3291 103.842L26.4216 104.21L26.5248 104.566L26.6352 104.911L26.7562 105.245L26.8879 105.568L27.0302 105.883L27.1868 106.188L27.3612 106.484L27.5534 106.774L27.7669 107.056L28.0054 107.327L28.2723 107.583L28.5677 107.824L28.8916 108.039L29.2439 108.229L29.6212 108.381L30.0162 108.492L30.5536 108.574L31.2867 108.559L32.0306 108.403L32.6961 108.143L33.2833 107.817L33.8101 107.446L34.2905 107.041L34.7354 106.611L35.1589 106.154L35.5646 105.672L35.9561 105.167L36.3405 104.64L36.7177 104.087L37.0879 103.516L37.4544 102.922L37.8139 102.31L38.1698 101.679L38.5186 101.029L38.8602 100.365L39.1983 99.6858L39.5293 98.9956L39.8532 98.2942L40.3265 97.2402L40.9316 95.8152L41.5045 94.3753L41.9103 93.2917L42.1701 92.5717L42.4156 91.8704L42.647 91.1764L42.8676 90.4936L43.0741 89.8256L43.2662 89.1687L43.4442 88.5304L43.6079 87.907L43.7538 87.3021L43.8641 86.712L43.9602 86.1405L44.0421 85.5876L44.1062 85.0495L44.1489 84.5225L44.1702 84.003V83.4723L44.1275 82.9119L44.0314 82.2848L43.8641 81.6539L43.6471 81.1158L43.4584 80.7558C43.3944 80.6445 43.3232 80.5331 43.2449 80.4292L43.2057 80.3773L42.4512 79.6017L40.7572 78.8335L38.9207 78.9708L37.7605 79.5906L37.1235 80.1917L36.7355 80.6964L36.465 81.1343L36.2515 81.5351L36.0736 81.9174L35.9134 82.2922L35.7639 82.667L35.6251 83.0418L35.4935 83.4203L35.3155 83.9844L35.0877 84.7452L34.8777 85.5022L34.6856 86.2296L34.5539 86.7454L34.4756 87.0683L34.4044 87.3689L34.3403 87.6472L34.2834 87.8996L34.2336 88.1259L34.1909 88.3226L34.1553 88.4896L34.1268 88.6306L34.1019 88.7605L34.0699 88.9275C34.0592 88.9869 34.0521 89.0463 34.045 89.1019L34.0272 89.3209L33.988 89.8441L33.9595 90.4008L33.9453 90.9612V91.5289L33.9595 92.1004L33.9844 92.6757L34.0236 93.2546L34.109 94.1118L34.2585 95.2697L34.4542 96.4498L34.6927 97.6299L34.981 98.7989L35.3084 99.953L35.5824 100.821L35.7817 101.397L35.9846 101.953L36.2017 102.499L36.4295 103.037L36.6679 103.564L36.917 104.083L37.1733 104.592L37.4402 105.089L37.7178 105.575L38.0096 106.047L38.3122 106.503L38.6253 106.945L38.9528 107.371L39.2944 107.783L39.6539 108.173L40.0276 108.544L40.4191 108.897L40.8248 109.223L41.2519 109.527L41.6967 109.802L42.163 110.047L42.647 110.259L43.1524 110.429L43.6755 110.559L44.2094 110.641L44.7539 110.67L45.3055 110.648L45.8572 110.574L46.4017 110.444L46.9355 110.262L47.4587 110.032L47.9676 109.754L48.4623 109.431L48.9428 109.067L49.409 108.663L49.8646 108.217L50.3059 107.731L50.7401 107.204L51.1672 106.637L51.5871 106.028L51.9964 105.375L52.4021 104.677L52.8007 103.939L53.0036 103.542C53.0036 103.542 53.0143 103.523 53.0178 103.516L53.1495 103.234L53.4271 102.606L53.6905 101.953L53.9289 101.293L54.1496 100.636L54.356 99.9864L54.5482 99.3555L54.7297 98.7469L54.8187 98.4537C55.0251 97.9639 54.8151 97.3887 54.3418 97.1697C53.872 96.9545 53.3203 97.1734 53.1104 97.667L52.9573 97.9379L52.6512 98.4908L52.3416 99.0512L52.0284 99.6116L51.7117 100.161L51.3914 100.688L51.0675 101.185L50.733 101.66L50.5479 101.909L50.5621 101.883L50.3308 102.18L49.8681 102.751L49.4197 103.271L48.9855 103.738L48.5691 104.158L48.1705 104.529L47.7897 104.852L47.4302 105.126L47.0921 105.356L46.7789 105.546L46.4907 105.698L46.2273 105.813L45.9889 105.894L45.7753 105.946L45.5867 105.976L45.4194 105.987H45.2699L45.1311 105.965L45.003 105.935L44.8749 105.894L44.7468 105.839L44.6151 105.768L44.4799 105.679L44.3375 105.572L44.188 105.442L44.0314 105.289L43.8713 105.115L43.7076 104.915L43.5438 104.692L43.3766 104.443L43.2093 104.176L43.042 103.887L42.8783 103.575L42.7182 103.245L42.5616 102.896L42.4085 102.528L42.2626 102.146L42.1203 101.749L41.985 101.337L41.8569 100.914L41.7359 100.48L41.622 100.035L41.5117 99.5819L41.412 99.1366L41.2732 98.4463L41.1131 97.4926L40.9849 96.5314L40.8817 95.574L40.8141 94.6314L40.7785 93.6925V92.568L40.7928 92.145L40.8141 91.7368L40.8426 91.3434L40.8782 90.9649L40.9209 90.6049L40.9743 90.2412L41.0099 90.026L40.9849 90.2004L40.96 90.334L40.9814 90.2635L41.017 90.1447L41.0632 89.9889L41.1202 89.8033L41.1842 89.5881L41.2554 89.3469L41.3337 89.0871L41.4156 88.8125L41.5508 88.3783L41.7466 87.7622L41.9565 87.1388L42.1736 86.5302L42.3338 86.0997L42.4334 85.8474L42.5224 85.621L42.6043 85.428L42.6719 85.2796L42.7182 85.1868L42.7253 85.1645L42.6683 85.2425L42.4904 85.454L42.0526 85.8362L41.0846 86.3149L39.4297 86.3929L37.9064 85.6581L37.3121 85.0124L37.3477 85.0643L37.1341 84.7378L36.9847 84.4483L36.8423 84.0661L36.764 83.7172L36.7498 83.5465V83.5317L36.7569 83.6319L36.7462 83.8211L36.7213 84.0809L36.6821 84.4L36.6288 84.7712L36.5576 85.1868L36.4686 85.6395L36.3867 86.1331L36.2942 86.6601L36.1874 87.213L36.07 87.7919L35.9419 88.3931L35.7995 89.0129L35.6465 89.6474L35.4828 90.2932L35.3119 90.9426L35.0379 91.9334L34.6464 93.2806L34.2229 94.6351L33.8884 95.6371L33.6606 96.2865L33.4292 96.9248L33.1944 97.5482L32.9559 98.1531L32.7175 98.7358L32.479 99.2962L32.2441 99.8305L32.0092 100.335L31.7779 100.807L31.5501 101.244L31.3295 101.642L31.1195 101.994L30.9237 102.298L30.7493 102.554L30.6034 102.755L30.4967 102.896L30.4433 102.981L30.4611 103.018H30.5643L30.76 103.029L30.9522 103.067L31.0946 103.115L31.2298 103.167L31.3508 103.234L31.454 103.304L31.5323 103.375L31.5821 103.438L31.6071 103.486V103.516L31.5928 103.523L31.5572 103.504L31.511 103.46L31.4505 103.389L31.3828 103.293L31.3081 103.17L31.2262 103.022L31.1408 102.848L31.0519 102.647L30.9629 102.421L30.8703 102.168L30.7778 101.894L30.6853 101.593L30.5927 101.27L30.5002 100.922L30.4077 100.55L30.3187 100.153L30.2297 99.7341L30.1408 99.2887L30.0518 98.8211L29.9664 98.3276L29.881 97.808L29.7991 97.2662L29.7172 96.6947L29.6781 96.3941L29.6496 96.1677L29.5927 95.7373L29.5393 95.3402L29.4895 94.9728L29.4432 94.6388L29.4005 94.3345L29.3649 94.0599L29.3329 93.8112L29.3008 93.5923L29.2724 93.3956L29.2475 93.2249L29.2261 93.0765L29.2083 92.9466L29.1905 92.8352L29.1763 92.735L29.162 92.6348L29.1371 92.4901L28.8809 91.8221L25.6671 92.4419L25.6315 92.7387V92.9169L25.6387 93.0208L25.6529 93.1766L25.6707 93.3585L25.7027 93.6665L25.749 94.1007L25.7846 94.4087L25.8059 94.5906L25.8237 94.739L25.8344 94.8466L25.8415 94.8874V94.8281L29.098 94.7019V94.7093L29.0909 94.6685L29.0837 94.6054L29.0731 94.5238L29.0588 94.4198L29.0446 94.2937L29.0268 94.1452L29.0054 93.9708L28.9805 93.7704L28.9521 93.544L28.92 93.2917L28.8844 93.0097L28.8453 92.6979L28.8026 92.3565L28.7563 91.9817L28.7065 91.5735L28.678 91.3582L28.646 91.0948L28.5784 90.5381L28.5072 89.9629L28.4289 89.3877L28.3435 88.8236L28.2509 88.2929L28.1727 87.9218L28.1121 87.6769L28.0445 87.4357L27.9627 87.1945L27.8523 86.9458L27.6886 86.6712L27.4075 86.3743L26.9412 86.1368L26.3896 86.122L25.9732 86.2964L25.7134 86.5116L25.5355 86.7306L25.3967 86.9569L25.2756 87.2056L25.1618 87.4839L25.0514 87.7994L24.9411 88.1556L24.8272 88.5564L24.7098 89.0092L24.5923 89.5101L24.5318 89.7773C24.393 90.2338 24.635 90.7237 25.0728 90.8684C25.5105 91.0131 25.9803 90.7608 26.1191 90.3043" fill="#242222"/>
<path d="M62.4632 37.2884L62.4952 37.3181L62.3813 37.2439L62.2995 37.1622L62.271 37.1548L62.2603 37.2142L62.2497 37.3255L62.2319 37.4777L62.207 37.6595L62.1749 37.871L62.1322 38.1048L62.0824 38.3572L62.0254 38.6281L61.9222 39.066L61.7656 39.6857L61.5912 40.3315L61.4026 40.9957L61.2033 41.66L61.004 42.3094L60.8083 42.9329L60.6197 43.5155L60.488 43.9163L60.4061 44.1613L60.3278 44.3913L60.2566 44.6029L60.2246 44.6993L59.5306 46.7553L58.1711 50.8968L56.8578 55.0791L55.9076 58.2446L55.2954 60.3711L54.694 62.5012L54.1139 64.6387L53.5551 66.7874L53.0141 68.9436L52.5016 71.1108L52.0069 73.2855L51.5727 75.475L51.2596 77.6867L50.982 79.9059L50.7577 82.1326L50.5691 84.3666L50.4268 86.6044L50.3307 88.8458L50.2737 91.0873L50.2666 93.3288L50.3058 95.5702L50.3841 97.8117L50.5122 100.049L50.6866 102.283L50.9072 104.51L51.1777 106.733L51.498 108.949L51.8717 111.153L52.2988 113.346L52.5337 114.441C52.5799 114.975 53.0319 115.372 53.5444 115.324C54.0569 115.276 54.4377 114.805 54.3915 114.27L54.4413 113.179L54.5552 110.997L54.694 108.822L54.8577 106.655L55.0427 104.495L55.2492 102.343L55.4769 100.198L55.7261 98.0566L55.993 95.9191L56.2813 93.7852L56.5802 91.6551L56.8899 89.525L57.2137 87.3985L57.5447 85.2721L57.8828 83.1457L58.2316 81.0193L58.5732 78.8891L58.922 76.759L59.1925 74.614L59.4416 72.4579L59.7085 70.3018L59.979 68.1457L60.2673 65.9896L60.5627 63.8297L60.8652 61.6699L61.182 59.5175L61.6695 56.2852L62.3386 51.9767L63.022 47.6756L63.3672 45.5269L63.385 45.4193L63.4206 45.1892L63.4597 44.9406L63.5024 44.6697L63.5665 44.2318L63.6555 43.6009L63.7444 42.9255L63.8298 42.2204L63.9117 41.4967L63.9829 40.7694L64.0434 40.0531L64.0897 39.3629L64.111 38.8693L64.1181 38.5502V37.949L64.1039 37.6669L64.0861 37.396L64.0576 37.1363L64.0149 36.8839L63.9508 36.6278L63.8476 36.3607L63.6697 36.0749L63.4384 35.856L63.4028 35.8337C63.022 35.5665 62.5023 35.6704 62.2461 36.0675C61.9899 36.4646 62.0895 37.0064 62.4703 37.2736" fill="#242222"/>
<path d="M40.608 78.292L40.6471 78.2289L40.7148 78.1473L40.7895 78.0693L40.882 77.9803L40.9924 77.8838L41.1169 77.7799L41.2593 77.6685L41.4159 77.5498L41.5903 77.4273L41.7789 77.3011L41.9817 77.1713L42.1988 77.0377L42.4302 76.9004L42.6757 76.7593L42.9356 76.6146L43.206 76.4662L43.4908 76.3177L43.7897 76.1656L44.0993 76.0097L44.4196 75.8538L44.925 75.6126L45.6404 75.2861L46.3949 74.9521L47.1885 74.6106L48.0213 74.2618L48.8933 73.9056L49.7973 73.5419L50.7368 73.1745L51.7084 72.7997L52.7049 72.4174L53.7299 72.0315L54.7798 71.6418L55.8546 71.2447L56.9472 70.8439L58.0612 70.4394L59.1929 70.0349L60.3425 69.6304L61.5027 69.2148L63.2715 68.5913L65.6596 67.7526L68.0654 66.9065L70.4286 65.9305L72.7633 64.8989L75.0624 63.8264L76.7565 63.0099L77.8704 62.4681L78.9701 61.9226L80.0592 61.3845L81.1269 60.839L82.1768 60.3046L83.2053 59.7702L84.2125 59.2432L85.1983 58.7311L86.1592 58.2227L87.0917 57.7254L87.9992 57.243L88.8747 56.7717L89.7182 56.3115L90.5297 55.8699L91.3091 55.4432L92.0529 55.0349L92.5832 54.7418L92.9249 54.5525L93.2594 54.3707L93.5833 54.1925L93.8965 54.0181L94.199 53.8511L94.4908 53.6878L94.772 53.532L95.0424 53.3835L95.3022 53.2388L95.5514 53.1015L95.7863 52.9716L96.0105 52.8454L96.2205 52.7267L96.3201 52.671C96.8077 52.504 97.0746 51.9511 96.9145 51.4427C96.7543 50.9342 96.224 50.6559 95.7364 50.8229L95.619 50.8415L95.377 50.8823L95.1207 50.9268L94.8538 50.9751L94.5727 51.0233L94.2808 51.079L93.9748 51.1346L93.658 51.194L93.3306 51.2571L92.9889 51.3239L92.6366 51.3944L92.2736 51.4686L91.8999 51.5466L91.5155 51.6282L90.9176 51.7544L90.0883 51.9362L89.22 52.1292L88.3195 52.3407L87.3835 52.5634L86.4155 52.8009L85.419 53.0532L84.394 53.3167L83.3405 53.5951L82.2657 53.8919L81.166 54.1962L80.0449 54.5117L78.9096 54.8494L77.7565 55.1945L76.5927 55.5619L75.4147 55.9367L74.226 56.3338L72.4287 56.9498L70.0229 57.8293L67.6206 58.7868L65.2432 59.8296L62.9334 61.0246L60.6557 62.2343L58.9758 63.1473L57.869 63.7559L56.7799 64.3719L55.7087 64.9842L54.6552 65.5928L53.6196 66.1977L52.6088 66.7989L51.623 67.4001L50.6585 67.9939L49.7225 68.5802L48.815 69.1628L47.9359 69.7344L47.0889 70.2984L46.2739 70.8551L45.4945 71.4006L44.7506 71.935L44.046 72.4583L43.384 72.9667L42.9142 73.3378L42.6117 73.5827L42.3199 73.8239L42.0387 74.0614L41.7682 74.2952L41.5084 74.5253L41.2593 74.7517L41.0244 74.9743L40.8002 75.1933L40.5866 75.4085L40.3838 75.62L40.1951 75.8316L40.0172 76.0394L39.8499 76.2435L39.6969 76.4476L39.5545 76.648L39.4228 76.8484L39.3054 77.0525L39.2022 77.2566L39.1203 77.4496L39.0954 77.5201C38.8926 77.9506 39.0598 78.4701 39.4727 78.6817C39.8855 78.8932 40.3838 78.7188 40.5866 78.2883" fill="#242222"/>
<path d="M63.1715 76.6962L63.2071 76.5589L63.2748 76.3029L63.3388 76.0691L63.3958 75.8538L63.4491 75.6571L63.499 75.4827L63.5452 75.3269L63.5844 75.1895L63.62 75.0708L63.652 74.9706L63.6805 74.889L63.7018 74.8296L63.7196 74.7925L63.7303 74.7813L63.7232 74.8259L63.4527 75.2267L61.8263 74.8407L61.7515 74.6032L61.7373 74.6403L61.7195 74.7628L61.6946 74.9372L61.6625 75.1524L61.6234 75.4011L61.5771 75.6757L61.5273 75.9726L61.4419 76.4513L61.3209 77.1304L61.1963 77.8244L61.0718 78.5035L60.9828 78.9822L60.9294 79.2828L60.8796 79.5611L60.8333 79.8172L60.7942 80.0436L60.7586 80.2403L60.7443 80.3293L60.5023 81.7544L60.1571 83.9031L59.9507 85.3615L59.8581 86.1074L59.8439 86.2113L59.8154 86.408L59.7834 86.627L59.7478 86.8682L59.7087 87.1317L59.666 87.4137L59.6019 87.8702L59.5165 88.5233L59.4382 89.2284L59.3741 89.9706L59.3279 90.7388L59.3101 91.5292L59.3279 92.3345L59.3706 92.9654L59.4204 93.3996L59.4845 93.819L59.5663 94.2383L59.6695 94.6614L59.8012 95.0881L59.9614 95.5186L60.1571 95.9491L60.392 96.3796L60.6732 96.8026L61.0077 97.2145L61.3992 97.6042L61.6803 97.838C61.723 97.8677 61.7657 97.9011 61.812 97.9271L61.869 97.9716L62.1928 98.1683L62.6235 98.3687L63.0897 98.5171L63.5773 98.6025L64.0684 98.621L64.5453 98.5765L64.9937 98.48L65.4066 98.339L65.7838 98.1683L66.1255 97.9753L66.4387 97.7675L66.7234 97.5523L66.9868 97.3259L67.3284 96.9993L67.7591 96.5317L68.1755 96.0196L68.5705 95.4852L68.9478 94.9248L69.3108 94.3385L69.6667 93.7262L70.019 93.0916L70.3678 92.4347L70.713 91.7556L71.0547 91.0542L71.3963 90.3343L71.7344 89.5995L72.0654 88.8499L72.3964 88.0891L72.884 86.9387L73.521 85.3838L74.1189 83.814L74.6279 82.2442L74.9873 81.0938L75.2187 80.3479L75.4429 79.6205L75.6564 78.9154L75.8593 78.2326L76.055 77.5795L76.2436 76.9597L76.4251 76.3771L76.596 75.8316L76.7526 75.3306L76.8985 74.8778L77.0337 74.4807L77.1547 74.143L77.258 73.8758L77.3327 73.694L77.3683 73.6198L77.322 73.6866L77.2224 73.8165L77.0907 73.9686L76.8593 74.1876L76.4714 74.4659L75.845 74.7554L74.9339 74.9112L73.8912 74.7479L73.0263 74.2915L72.4783 73.7719L72.1829 73.3415L72.0369 73.0372L71.9693 72.8442L71.9444 72.7366V72.6994L71.9515 72.7217L71.9693 72.7885L71.9907 72.8998L72.012 73.0483L72.0334 73.2301L72.0547 73.4417L72.0761 73.6829L72.0939 73.9538L72.1117 74.2544L72.1295 74.5809L72.1473 74.9372L72.1615 75.3194L72.1757 75.7277L72.1864 76.1618L72.1971 76.6257L72.2042 77.1156L72.2149 77.6314L72.2256 78.1769L72.2362 78.7484L72.2434 79.3496L72.2505 79.9805V80.7524L72.2434 81.6505L72.2256 83.0161L72.2078 83.9439L72.1793 85.5767L72.1686 88.8387L72.1935 91.2992L72.2434 92.9469L72.3252 94.5946L72.4427 96.246L72.5174 97.0772C72.4961 97.6153 72.8982 98.0681 73.4107 98.0904C73.9267 98.1126 74.3609 97.6933 74.3823 97.1589L74.5211 96.3647L74.8094 94.7801L75.1154 93.2029L75.4322 91.6331L75.9198 89.2766L76.5995 86.1111L76.9305 84.5154L77.1227 83.5913L77.4074 82.1774L77.5747 81.22L77.6494 80.7598V80.7413L77.7028 80.411L77.8025 79.769L77.895 79.1529L77.9804 78.5629L78.0623 77.9988L78.137 77.457L78.2011 76.9412L78.258 76.4476L78.3114 75.9763L78.3577 75.5273L78.4004 75.0968L78.436 74.6886L78.468 74.2989L78.4929 73.9278L78.5107 73.5715L78.5214 73.2338L78.5285 72.9073V72.5955L78.5214 72.2912L78.5071 71.9906L78.4822 71.69L78.4431 71.382L78.3861 71.0555L78.3007 70.6992L78.1655 70.2947L77.9448 69.816L77.5711 69.2482L76.9412 68.6247L75.9874 68.1015L74.8485 67.9048L73.8378 68.0607L73.1046 68.3835L72.6064 68.7286L72.2612 69.0441L72.0085 69.3261L71.7843 69.6156L71.5387 69.9793L71.2896 70.3949L71.0653 70.8142L70.8482 71.2484L70.6311 71.7086L70.4105 72.1985L70.1863 72.718L69.9549 73.2672L69.7236 73.8499L69.4887 74.4585L69.2467 75.0931L69.0011 75.7536L68.7485 76.4327L68.4958 77.1341L68.2431 77.8541L67.9868 78.5851L67.5953 79.7022L67.0757 81.22L66.6166 82.7675L66.1718 84.315L65.8337 85.4543L65.6094 86.1891L65.3852 86.9053L65.1646 87.603L64.9439 88.2747L64.7233 88.9167L64.5062 89.5253L64.2926 90.0968L64.0826 90.6275L63.8798 91.1136L63.684 91.5478L63.5061 91.9263L63.3495 92.2418L63.2214 92.4867L63.111 92.6797L63.0505 92.7836V92.8095L63.0683 92.817L63.1146 92.8058L63.1965 92.7799L63.3139 92.7465L63.4705 92.7131L63.6627 92.6871H63.8833L64.1218 92.7093L64.3602 92.7687L64.5773 92.8541L64.7624 92.958L64.8443 93.0248L64.7802 92.9914L64.9119 93.0804L64.9937 93.1658L65.008 93.2252L65.0009 93.2623L64.9688 93.2697L64.9226 93.2437L64.8621 93.1844L64.7944 93.0916L64.7233 92.9654L64.6485 92.8095L64.5773 92.624L64.5062 92.4162L64.4421 92.2046L64.3496 91.8373L64.2463 91.2732L64.1645 90.6683L64.104 90.0411L64.0613 89.4028L64.0328 88.7682L64.015 88.1522L64.0079 87.7106V87.4285L64.0008 87.1539V86.8904L63.9937 86.6381V86.4006L63.9866 86.3004L63.9616 85.6138L63.9296 84.2037L63.9154 82.055V80.6114V79.5723L63.9225 79.268V78.7744L63.9296 78.0767V76.6591L63.9225 76.1581V75.8427L63.9118 75.5458L63.9047 75.2712L63.8976 75.0226L63.8869 74.7962L63.8762 74.5921L63.8584 74.3805L63.7694 73.9835L62.1181 73.5307L61.8049 73.9649L61.7586 74.1059L61.7373 74.1987L61.7195 74.2915L61.7052 74.3917L61.691 74.503L61.6768 74.6292L61.6625 74.7702L61.6483 74.9261L61.6341 75.1005L61.6198 75.2935L61.6056 75.505L61.5878 75.7351L61.57 75.9837L61.5522 76.2509L61.5451 76.3919C61.4704 76.8632 61.7764 77.3123 62.2284 77.3902C62.6804 77.4681 63.111 77.149 63.1858 76.6777" fill="#242222"/>
<path d="M82.0986 71.7489L82.152 71.7341L82.0843 71.786L81.9349 71.8306L81.8139 71.838H81.7462L81.7284 71.8714L81.7462 71.9345L81.7854 72.0347L81.8388 72.172L81.8993 72.339L81.9633 72.5356L82.0309 72.762L82.1021 73.0107L82.1733 73.2853L82.2445 73.5784L82.3157 73.8939L82.3868 74.2279L82.4545 74.5804L82.5577 75.1408L82.6858 75.935L82.8068 76.7699L82.9171 77.6457L83.0203 78.5475L83.1129 79.4716L83.1947 80.4067L83.2659 81.3419L83.3264 82.2697L83.3727 83.1826L83.4011 84.0695L83.4189 84.9231V85.9065L83.4083 86.2813L83.394 86.6376L83.3762 86.9753L83.3549 87.2944L83.3264 87.5913L83.2944 87.8622L83.2588 88.1071L83.2196 88.3187L83.1769 88.4968L83.1378 88.6341L83.0986 88.7269L83.0666 88.764L83.0488 88.738L83.0559 88.6341L83.1164 88.4374L83.2624 88.1368L83.5506 87.7472L84.0346 87.3278L84.7002 86.9976L85.4226 86.8602L85.9351 86.8862L86.3693 86.9938L86.3231 86.9753L86.9566 87.2462L87.5758 87.7323L87.9246 88.1591L88.1026 88.456L88.1915 88.6267L88.2342 88.7009H88.2591L88.2769 88.6378L88.2912 88.5302L88.3125 88.2816L88.3552 87.8845L88.4122 87.4392L88.4834 86.9567L88.5617 86.4594L88.6435 85.9696L88.7254 85.502L88.7823 85.1828L88.8037 84.9862L88.8215 84.8006L88.8393 84.6299L88.8535 84.4778L88.8677 84.3442L88.8784 84.2291L88.8891 84.1215L88.8962 84.0399V84.0287L88.9211 83.6205L88.9745 82.8635L89.0386 82.1324L89.1062 81.4087L89.1774 80.6925L89.2628 79.9837L89.3517 79.2823L89.4478 78.5846L89.5582 77.8944L89.6721 77.2078L89.7966 76.525L89.9319 75.8459L90.0742 75.1705L90.2273 74.4951L90.3945 73.8234L90.5654 73.1517L90.7504 72.48L90.9497 71.812L91.1633 71.144L91.3839 70.476L91.6153 69.8043L91.8644 69.1363L92.1277 68.4684L92.3982 67.7929L92.6865 67.1175L92.9855 66.4384L93.2986 65.7593L93.6261 65.0765L93.9677 64.3899L94.3201 63.6997L94.6867 63.0057L95.0675 62.3043L95.2596 61.9555C95.6013 61.5547 95.5693 60.9387 95.1849 60.5824C94.8005 60.2261 94.2097 60.2595 93.8681 60.6603L93.5371 60.9201L92.8965 61.4434L92.2737 61.9815L91.6651 62.5307L91.0743 63.0948L90.4977 63.67L89.939 64.26L89.3945 64.8612L88.8677 65.4773L88.3517 66.1044L87.857 66.7464L87.3765 67.3996L86.9103 68.0639L86.4619 68.743L86.0348 69.4369L85.622 70.142L85.2233 70.8583L84.8425 71.5856L84.4831 72.3278L84.1379 73.0812L83.8104 73.8456L83.5079 74.6212L83.2196 75.408L82.9492 76.2059L82.7036 77.0186L82.4723 77.8387L82.2623 78.67L82.0772 79.5124L81.9064 80.3659L81.7605 81.2269L81.6395 82.099L81.5327 82.9637L81.49 83.3719V83.3867L81.4757 83.4832L81.4615 83.6168L81.4437 83.7801L81.4224 83.9693L81.3974 84.1809L81.3761 84.4184L81.3654 84.808L81.3547 85.3758V86.6413L81.3761 87.313L81.4117 88.0032L81.4651 88.6824L81.5256 89.1871L81.579 89.5507L81.6501 89.9293L81.7427 90.3301L81.8708 90.768L82.0559 91.2615L82.3477 91.8293L82.8282 92.475L83.6004 93.1245L84.4048 93.503L84.451 93.5141C84.5934 93.5587 84.7393 93.5958 84.8852 93.6218L85.5223 93.67L86.4797 93.529L87.3587 93.1356L88.0385 92.5938L88.5047 92.026L88.8108 91.4916L89.0101 91.0092L89.1418 90.5676L89.2272 90.1556L89.2806 89.7623L89.3126 89.3763L89.3268 88.9941V88.6119L89.3055 88.2259L89.277 87.8363L89.2379 87.4392L89.1916 87.0347L89.1347 86.6227L89.0706 86.2034L88.9958 85.7729L88.914 85.335L88.825 84.8823L88.6791 84.1994L88.462 83.2754L88.2164 82.3365L87.9495 81.3828L87.6648 80.4253L87.3587 79.4716L87.042 78.5252L86.711 77.5975L86.3729 76.692L86.0241 75.8162L85.6718 74.9775L85.3194 74.1908L85.0561 73.6341L84.8781 73.2779L84.7037 72.9364L84.5293 72.6099L84.3549 72.2981L84.1806 72.005L84.0097 71.7266L83.8389 71.4669L83.6645 71.2256L83.4901 70.9993L83.3086 70.7877L83.12 70.5911L82.9136 70.4092L82.6751 70.2459L82.394 70.1161L82.063 70.0492L81.7106 70.0789L81.4437 70.1791L81.3974 70.2088C80.981 70.4129 80.8031 70.9288 80.9953 71.363C81.191 71.7971 81.6857 71.9827 82.1021 71.7823" fill="#242222"/>
<path d="M94.6262 80.5599L95.281 80.096L96.5943 79.1682L97.904 78.233L99.2101 77.2756L100.506 76.2885L101.47 75.5166L102.107 74.9822L102.737 74.4367L103.36 73.8763L103.972 73.2974L104.577 72.6999L104.883 72.3844C104.883 72.3844 104.901 72.3659 104.908 72.3548L104.929 72.3325L105.015 72.2323L105.111 72.1173L105.214 71.9911L105.332 71.8501L105.46 71.6905L105.602 71.5124L105.759 71.3157L105.926 71.1004L106.107 70.8704L106.3 70.6217L106.502 70.3582L106.716 70.0799L106.937 69.7867L107.164 69.4824L107.399 69.1633L107.762 68.666L108.264 67.9646L108.784 67.2261L109.31 66.4579L109.841 65.6638L110.364 64.8511L110.873 64.0235L111.368 63.1885L111.837 62.3535L112.175 61.7189L112.393 61.2922L112.599 60.8765L112.795 60.4609L112.98 60.0453L113.154 59.6296L113.314 59.214L113.464 58.7984L113.599 58.379L113.716 57.9559L113.816 57.5255L113.894 57.0838L113.951 56.6237L113.98 56.145L113.969 55.6365L113.909 55.0947L113.781 54.5158L113.563 53.9072L113.24 53.2875L112.795 52.6937L112.24 52.1742L111.61 51.7622L110.948 51.4728L110.289 51.2983L109.656 51.2167L109.047 51.2056L108.463 51.2464L107.894 51.3317L107.332 51.4542L106.89 51.573L106.591 51.662L106.435 51.714C106.413 51.7214 106.396 51.7288 106.374 51.7363L106.097 51.8253L105.417 52.0851L104.712 52.4005L104.025 52.7531L103.356 53.1427L102.709 53.5658L102.082 54.0222L101.477 54.5084L100.894 55.0242L100.331 55.566L99.8009 56.1413L99.3098 56.7536L98.8435 57.3882L98.4022 58.045L97.9894 58.7204L97.6015 59.4144L97.2384 60.1232L96.8968 60.8468L96.58 61.5816L96.2953 62.335L96.0355 63.0994L95.8006 63.8713L95.5906 64.6544L95.402 65.4448L95.2454 66.2464L95.1173 67.0517L95.0141 67.8644L94.9358 68.6808L94.8824 69.501L94.8611 70.3248V71.1487L94.8966 71.9725L94.9536 72.7964L95.0354 73.6202L95.1529 74.4404L95.2988 75.2568L95.4696 76.0695L95.6689 76.8748L95.9003 77.6727L96.1636 78.4631L96.4555 79.2424L96.7758 80.0106L97.1281 80.7677L97.5089 81.5099L97.9182 82.2372L98.3631 82.9461L98.84 83.6363L99.3454 84.308L99.8792 84.9574L100.445 85.5846L101.039 86.1895L101.666 86.7647L102.321 87.3139L103.004 87.8372L103.716 88.3308L104.456 88.7909L105.225 89.2214L106.022 89.6185L106.848 89.9785L107.698 90.305L108.574 90.5945L109.478 90.8469L110.407 91.0621L111.126 91.1994L111.613 91.2773L111.862 91.3144C112.361 91.4555 112.873 91.1474 113.005 90.6279C113.136 90.1084 112.845 89.574 112.346 89.4367L112.14 89.3439L111.734 89.1546L111.143 88.8652L110.382 88.4644L109.659 88.045L108.976 87.6108L108.328 87.1655L107.716 86.7053L107.14 86.2303L106.599 85.7442L106.09 85.2469L105.613 84.7385L105.164 84.2226L104.748 83.6957L104.36 83.1613L103.997 82.6232L103.662 82.074L103.353 81.5173L103.072 80.9532L102.815 80.3817L102.58 79.8065L102.363 79.2276L102.171 78.6413L102.004 78.0512L101.858 77.4574L101.733 76.86L101.63 76.2588L101.545 75.6576L101.477 75.0527L101.431 74.4478L101.406 73.8429L101.399 73.238L101.406 72.6331L101.431 72.0319L101.474 71.4344L101.538 70.8407L101.616 70.2506L101.709 69.6643L101.815 69.0853L101.94 68.5138L102.082 67.9498L102.239 67.3968L102.403 66.8513L102.584 66.3169L102.78 65.7936L102.99 65.2815L103.214 64.7842L103.442 64.2981L103.68 63.8268L103.933 63.3703L104.196 62.9324L104.47 62.5131L104.748 62.1086L105.033 61.7226L105.324 61.3553L105.609 60.9916L105.894 60.639L106.189 60.305L106.492 59.9896L106.801 59.6927L107.118 59.4144L107.442 59.1583L107.777 58.9208L108.118 58.7019L108.513 58.4866L108.78 58.3604L108.72 58.3827L108.77 58.3567L108.876 58.3011L109.015 58.2306L109.175 58.1563L109.271 58.1044L109.293 58.071L109.236 58.0376L109.097 57.9893L108.883 57.9003L108.613 57.7481L108.325 57.5218L108.061 57.2323L107.862 56.9169L107.737 56.62L107.677 56.375L107.663 56.2006L107.673 56.1004L107.695 56.0707L107.716 56.1004L107.73 56.1858V56.3194L107.723 56.4901L107.702 56.6979L107.666 56.9354L107.613 57.1989L107.545 57.4846L107.467 57.7927L107.374 58.1155L107.268 58.4532L107.15 58.8058L107.026 59.162L106.819 59.7224L106.51 60.5054L106.171 61.307L105.812 62.1197L105.438 62.9362L105.058 63.7452L104.67 64.5393L104.285 65.3075L103.908 66.046L103.634 66.573L103.456 66.907L103.285 67.2298L103.121 67.5378L102.961 67.831L102.812 68.1093L102.669 68.3691L102.534 68.6103L102.41 68.833L102.296 69.0334L102.193 69.2115L102.104 69.3674L102.029 69.4973L101.972 69.5975L101.936 69.6643L101.922 69.6939L101.904 69.7199L101.929 69.6902L101.716 69.9945L101.264 70.618L100.797 71.234L100.317 71.8426L99.8223 72.4475L99.3204 73.0413L98.541 73.9282L97.4662 75.1046L96.3629 76.2736L95.2454 77.4426L94.1208 78.6153L93.562 79.2053C93.2097 79.5133 93.1599 80.0589 93.4553 80.4263C93.7507 80.7937 94.2738 80.8456 94.6262 80.5376" fill="#242222"/>
<path d="M115.759 35.1253L115.72 35.0994L115.574 35.0251L115.403 34.9472L115.215 34.8656L115.005 34.7765L114.773 34.68L114.524 34.5761L114.257 34.4685L113.827 34.2941L113.207 34.0491L112.56 33.7931L111.901 33.5296L111.257 33.2698L110.645 33.0175L110.225 32.8356L109.972 32.7206L109.737 32.613L109.531 32.5128L109.356 32.42L109.221 32.3384L109.136 32.2753L109.118 32.2419L109.2 32.2678L109.449 32.4497L109.897 33.1808L109.744 34.6763L109.235 35.2478L109.079 35.3443L109.531 35.1587L110.431 34.821L111.357 34.5019L112.31 34.1939L113.286 33.8933L114.275 33.6075L115.271 33.3366L116.264 33.0731L117.247 32.8208L118.211 32.587L119.151 32.368L119.831 32.2159L120.272 32.1194L120.702 32.0229L121.122 31.9301L121.528 31.8411L121.92 31.7557L122.297 31.6778L122.66 31.6036L123.005 31.5331L123.333 31.4663L123.486 31.4366H123.475L124.436 31.2473L126.329 30.8799L128.198 30.4531L130.048 29.9633L131.892 29.4289L133.735 28.876L136.504 28.0039L140.191 26.7607L143.886 25.4841L147.58 24.1036L151.27 22.6377L153.11 21.8547C153.616 21.7433 153.94 21.2275 153.833 20.7043C153.726 20.1773 153.231 19.8396 152.73 19.9509L150.751 19.9992L146.811 20.1736L142.882 20.4259L138.967 20.8007L135.059 21.2646L132.141 21.7248L130.198 22.0922L128.262 22.5078L126.34 23.0014L124.436 23.5952L122.567 24.2891L121.649 24.6454H121.638L121.478 24.7122L121.147 24.8421L120.799 24.9831L120.436 25.1315L120.055 25.2874L119.66 25.4507L119.25 25.6214L118.83 25.7995L118.4 25.9851L117.955 26.1817L117.272 26.4898L116.339 26.9202L115.382 27.373L114.407 27.848L113.424 28.3453L112.442 28.8685L111.463 29.4066L110.495 29.9633L109.552 30.5385L108.634 31.1248L107.766 31.7186L107.367 32.0081C107.314 32.0378 107.26 32.0712 107.21 32.1046L106.641 32.7206L106.435 34.3089L106.911 35.1439L107.271 35.4408L107.538 35.5892L107.776 35.6857L108.011 35.7636L108.257 35.8304L108.517 35.8898L108.791 35.9455L109.082 36.0011L109.392 36.0531L109.876 36.1273L110.556 36.2201L111.261 36.3054L111.969 36.3871L112.659 36.4613L113.31 36.5318L113.762 36.5801L114.04 36.6098L114.296 36.6394L114.524 36.6654L114.723 36.6877L114.887 36.7099L115.008 36.7248L115.086 36.7322L115.133 36.7433C115.56 36.9215 116.044 36.71 116.218 36.2646C116.389 35.8193 116.186 35.3146 115.759 35.1328" fill="#242222"/>
<path d="M117.802 29.6362L117.813 30.1706L117.827 31.2431L117.834 32.3267V34.5311L117.82 35.6518L117.802 36.7874L117.777 37.9341L117.749 39.0919L117.713 40.2646L117.67 41.4484L117.624 42.6434L117.571 43.8458L117.514 45.0593L117.414 46.9037L117.268 49.3938L117.097 51.9136L116.919 54.4667L116.716 57.0459L116.496 59.6511L116.268 62.2822L116.019 64.9319L115.766 67.6001L115.499 70.2795L115.314 72.9774L115.193 75.6902L115.079 78.4103L114.976 81.138L114.88 83.8693L114.802 86.6006L114.727 89.3282L114.659 92.0484L114.592 94.7612L114.531 97.4628L114.467 100.15L114.414 102.818L114.368 105.464L114.314 108.088L114.275 110.685L114.257 111.973C114.186 112.504 114.538 112.997 115.047 113.075C115.556 113.149 116.03 112.782 116.104 112.251L116.435 111.001L117.076 108.473L117.684 105.909L118.282 103.311L118.848 100.684L119.382 98.0269L119.895 95.3475L120.375 92.6459L120.827 89.9294L121.243 87.1981L121.628 84.4556L121.966 81.702L122.265 78.9447L122.525 76.1874L122.738 73.4301L122.856 70.6765V67.9304L122.827 65.1991L122.77 62.4863L122.692 59.7958L122.582 57.1313L122.446 54.4964L122.293 51.895L122.105 49.327L121.895 46.8035L121.717 44.9368L121.592 43.7047L121.457 42.4838L121.318 41.2777L121.172 40.0828L121.019 38.8989L120.859 37.73L120.692 36.5758L120.521 35.4366L120.339 34.3121L120.154 33.2025L119.962 32.1078L119.763 31.0278L119.553 29.9665L119.446 29.4469C119.393 28.9719 118.98 28.6305 118.524 28.6825C118.069 28.7381 117.741 29.1686 117.791 29.6436" fill="#242222"/>
<path d="M101.932 52.3254L101.95 52.3551L101.925 52.3403L101.851 52.229L101.769 51.9543L101.851 51.4793L102.142 51.1379L102.395 51.0229L102.498 50.9895L102.484 50.9561L102.402 50.9041L102.292 50.8336L102.171 50.752L102.053 50.6629L101.954 50.5738L101.886 50.4959L101.868 50.4477L101.925 50.4625L102.071 50.6406L102.185 51.0822L102.11 51.509L101.993 51.7205L101.929 51.7985L102.039 51.702L102.235 51.5647L102.438 51.4459L102.658 51.3272L102.9 51.2121L103.164 51.1008L103.445 50.9932L103.74 50.8893L104.054 50.7891L104.381 50.6926L104.901 50.5516L105.623 50.3809L106.37 50.2287L107.136 50.0877L107.908 49.9615L108.68 49.839L109.442 49.724L110.182 49.609L110.719 49.5199L111.072 49.4605L111.414 49.3974L111.744 49.3344L112.065 49.2675L112.378 49.197L112.545 49.1562H112.552L113.766 48.863L116.165 48.2953L118.546 47.7497L120.916 47.2153L123.276 46.6921L125.61 46.1132L127.909 45.4266L130.191 44.677L132.465 43.9014L134.739 43.1072L137.017 42.2945L139.302 41.4632L141.597 40.6246L143.907 39.7784L146.231 38.9138L148.576 38.038L149.754 37.5889C150.263 37.5036 150.608 37.0026 150.527 36.4756C150.445 35.9449 149.964 35.585 149.459 35.6703L148.185 35.6332L145.658 35.6221L143.142 35.6777L140.64 35.8076L138.152 36.0006L135.675 36.2567L133.212 36.5906L130.767 36.9952L128.336 37.4776L125.923 38.0417L123.539 38.7208L121.197 39.5632L118.887 40.5132L116.588 41.5078L114.3 42.5469L112.026 43.6193L110.897 44.1686H110.905L110.819 44.2131L110.598 44.3207L110.353 44.4358L110.086 44.5545L109.798 44.6807L109.492 44.8106L109.001 45.0147L108.296 45.3042L107.552 45.6122L106.78 45.935L105.993 46.2802L105.203 46.6439L104.42 47.0298L103.662 47.438L103.114 47.7572L102.755 47.9798L102.406 48.2099L102.068 48.4474L101.74 48.6961L101.427 48.9558L101.128 49.223L100.847 49.5013L100.584 49.7945L100.356 50.084L100.274 50.2064C100.253 50.2324 100.231 50.2584 100.21 50.2844L100.064 50.5367L99.9536 51.0451L100.068 51.6166L100.299 51.9803L100.523 52.1918L100.74 52.3366L100.961 52.4516L101.185 52.5481L101.413 52.6297L101.641 52.6965L101.868 52.7522L102.096 52.793L102.349 52.819L102.658 52.8042L103.018 52.6706L103.356 52.3032L103.459 51.7873L103.374 51.4571L103.267 51.2752L103.182 51.175L103.157 51.1528C102.847 50.7965 102.32 50.7742 101.979 51.0971C101.641 51.42 101.616 51.9692 101.925 52.3254" fill="#242222"/>
<path d="M128.945 74.9772L129.023 74.9438L129.201 74.8659L129.393 74.7768L129.596 74.6803L129.81 74.5727L130.034 74.4577L130.265 74.3352L130.507 74.2053L130.885 73.9938L131.411 73.6858L131.966 73.3481L132.543 72.9807L133.137 72.5873L133.742 72.1642L134.355 71.7189L134.967 71.2476L135.575 70.754L136.177 70.2345L136.768 69.6927L137.341 69.1286L137.892 68.5423L138.419 67.9337L138.914 67.2991L139.369 66.6348L139.693 66.1004L139.899 65.7219L140.085 65.3545L140.255 64.976L140.408 64.5863L140.547 64.1855L140.665 63.7699L140.761 63.3431L140.835 62.9052L140.882 62.4525L140.896 61.9886L140.882 61.5173L140.832 61.0385L140.746 60.5561L140.622 60.0737L140.458 59.595L140.259 59.1237L140.02 58.6635L139.746 58.2182L139.44 57.7914L139.102 57.3832L138.736 56.9935L138.344 56.6224L137.928 56.2699L137.675 56.0769C137.657 56.0658 137.639 56.0509 137.618 56.0398L137.504 55.9507L137.202 55.7392L136.86 55.524L136.497 55.3236L136.113 55.138L135.703 54.9747L135.269 54.8337L134.807 54.7224L134.323 54.6481L133.821 54.6147L133.305 54.6259L132.785 54.6853L132.265 54.7929L131.757 54.945L131.262 55.138L130.781 55.3681L130.5 55.524C130.472 55.5425 130.443 55.5611 130.415 55.5796L130.187 55.7058L129.635 56.0546L129.069 56.4628L128.529 56.9007L128.012 57.3646L127.525 57.8545L127.066 58.3703L126.635 58.9084L126.233 59.4688L125.863 60.0477L125.55 60.66L125.269 61.2835L125.019 61.9181L124.806 62.5601L124.617 63.2095L124.457 63.8627L124.322 64.5195L124.215 65.1801L124.14 65.8443L124.09 66.5086L124.062 67.1766V67.8409L124.076 68.5051L124.123 69.1657L124.19 69.8263L124.276 70.4831L124.382 71.1363L124.514 71.782L124.667 72.424L124.834 73.0586L125.019 73.6895L125.222 74.3129L125.45 74.9252L125.692 75.5301L125.952 76.1239L126.226 76.7103L126.521 77.2818L126.834 77.8421L127.162 78.3914L127.5 78.9295L127.852 79.4527L128.219 79.9648L128.603 80.4584L129.002 80.9334L129.415 81.3936L129.838 81.8352L130.276 82.262L130.724 82.6702L131.187 83.0561L131.66 83.4198L132.144 83.7612L132.639 84.0804L133.145 84.3735L133.661 84.6445L134.184 84.8894L134.714 85.1046L135.251 85.2902L135.796 85.4497L136.348 85.5759L136.903 85.6724L137.462 85.7355L138.02 85.7652H138.579L139.138 85.7244L139.43 85.6947C139.946 85.7244 140.383 85.3124 140.412 84.7743C140.44 84.2362 140.045 83.7798 139.529 83.7501L139.323 83.6907L138.896 83.5571L138.483 83.4013L138.084 83.2268L137.7 83.0376L137.33 82.8297L136.97 82.6034L136.625 82.3622L136.291 82.1024L135.967 81.8278L135.654 81.542L135.351 81.2414L135.059 80.9223L134.775 80.592L134.5 80.2506L134.237 79.8943L133.984 79.5269L133.739 79.1521L133.504 78.7662L133.28 78.3691L133.07 77.9609L132.87 77.5415L132.678 77.1185L132.493 76.688L132.322 76.2501L132.162 75.8048L132.013 75.3557L131.878 74.8993L131.753 74.4428L131.636 73.9826L131.529 73.5225L131.436 73.0586L131.358 72.5947L131.287 72.1346L131.226 71.6744L131.18 71.2179L131.144 70.7615L131.119 70.3124L131.102 69.8671V69.4255L131.109 68.9913L131.13 68.5645L131.159 68.1452L131.198 67.737L131.248 67.3362L131.312 66.9465L131.386 66.568L131.465 66.2006L131.55 65.8443L131.65 65.5029L131.757 65.1726L131.874 64.8572L131.999 64.5529L132.13 64.2597L132.269 63.9814L132.386 63.6919L132.518 63.4136L132.66 63.1427L132.814 62.8792L132.981 62.6232L133.162 62.3745L133.362 62.1333L133.579 61.8995L133.853 61.6434L134.056 61.4802L133.97 61.5358H133.942L133.96 61.4839V61.4505L133.931 61.4245L133.892 61.3985L133.849 61.3726L133.806 61.3429L133.774 61.3095L133.76 61.2761L133.767 61.2464L133.799 61.2241L133.856 61.213H133.938L134.045 61.2389L134.177 61.2798L134.355 61.3503L134.483 61.4134L134.426 61.3763L134.493 61.3948L134.675 61.4765L134.828 61.5507L134.96 61.6175L135.07 61.6768L135.162 61.7288L135.241 61.7771L135.308 61.8179L135.369 61.8587L135.422 61.8995L135.472 61.944L135.518 61.9997L135.561 62.0665L135.6 62.1482L135.636 62.2446L135.664 62.356L135.686 62.4859L135.696 62.6343V62.7976L135.682 62.9794L135.657 63.1761L135.618 63.3839L135.565 63.6066L135.508 63.8218L135.394 64.1744L135.184 64.6939L134.928 65.2394L134.629 65.7998L134.294 66.3713L133.927 66.9465L133.532 67.5217L133.116 68.0932L132.682 68.6573L132.237 69.2103L131.785 69.7483L131.333 70.2679L130.885 70.7652L130.443 71.2365L130.016 71.6781L129.603 72.09L129.308 72.3758L129.123 72.5539L128.945 72.7209L128.774 72.8768L128.61 73.0215L128.457 73.1551L128.315 73.2775L128.18 73.3889L128.112 73.4445C127.714 73.6821 127.575 74.2127 127.806 74.6284C128.034 75.044 128.543 75.1887 128.941 74.9475" fill="#242222"/>
<path d="M155.879 56.2073L155.919 56.1479L155.975 56.0922L156.043 56.0366L156.136 55.9623L156.253 55.8733L156.392 55.7731L156.548 55.6655L156.723 55.5504L157.015 55.3649L157.442 55.1014L157.897 54.8231L158.374 54.5262L158.858 54.2107L159.339 53.873L159.805 53.5094L160.147 53.205L160.371 52.9824L160.577 52.7523L160.773 52.5074L160.954 52.2439L161.122 51.9544L161.268 51.639L161.382 51.2939L161.46 50.9153L161.492 50.5108L161.481 50.2474C161.481 50.2177 161.474 50.188 161.471 50.1583L161.463 50.0581L161.417 49.7612L161.332 49.4346L161.214 49.1155L161.061 48.8075L160.876 48.518L160.659 48.2508L160.417 48.0133L160.154 47.8055L159.876 47.6311L159.588 47.4863L159.296 47.3713L159.001 47.2822L158.705 47.2154L158.41 47.1709L158.114 47.1449L157.815 47.1338H157.517L157.086 47.1635L156.499 47.2414L155.887 47.3676L155.271 47.5346L154.652 47.7387L154.029 47.9762L153.406 48.2471L152.783 48.5514L152.164 48.8891L151.552 49.2565L150.95 49.6536L150.359 50.0804L149.786 50.5368L149.235 51.023L148.705 51.5388L148.199 52.0843L147.726 52.6595L147.288 53.2718L146.889 53.9176L146.537 54.6041L146.299 55.1793L146.16 55.5912L146.05 55.9846L145.957 56.3928L145.886 56.8122L145.84 57.2389L145.825 57.5024C145.825 57.5321 145.825 57.5655 145.825 57.5952V58.0999L145.857 58.523L145.907 58.9386L145.975 59.3468L146.057 59.7476L146.153 60.1447L146.259 60.5418L146.377 60.9388L146.505 61.3359L146.64 61.733L146.786 62.1301L147.01 62.7164L147.338 63.5106L147.694 64.3233L148.075 65.1397L148.473 65.9599L148.882 66.78L149.509 68.0047L150.352 69.6264L150.975 70.8139L151.37 71.5784L151.747 72.3243L152.103 73.0405L152.431 73.7271L152.726 74.3728L152.918 74.8181L153.029 75.0927L153.146 75.3562L153.256 75.6012L153.353 75.8312L153.434 76.0428L153.502 76.232L153.555 76.399L153.598 76.5363L153.627 76.644L153.641 76.7145V76.733L153.634 76.6699V76.5475L153.644 76.3656L153.687 76.1244L153.772 75.8312L153.915 75.5084L154.114 75.1855L154.324 74.9332L154.502 74.7587L154.381 74.8738L154.356 74.8849L154.363 74.8664L154.317 74.8812L154.221 74.922L154.079 74.974L153.893 75.0296L153.673 75.0816L153.424 75.1261L153.15 75.1595L152.858 75.1818L152.555 75.1892H152.246L151.932 75.1781L151.623 75.1521L151.324 75.1113L151.036 75.0556L150.765 74.9888L150.52 74.9146L150.299 74.833L150.11 74.755L149.957 74.6771L149.84 74.6066L149.762 74.5509L149.722 74.5175L149.744 74.5472L149.776 74.5955L149.783 74.614L149.79 74.64L149.801 74.6734L149.811 74.7105L149.818 74.7476V74.8478L149.811 74.8664L149.804 74.8738L149.797 74.8664V74.8404L149.783 74.8664L149.762 74.9554L149.829 74.6251L149.954 74.0908L150.096 73.5935L150.263 73.0851L150.456 72.5655L150.676 72.0348L150.925 71.4967L151.203 70.9549L151.509 70.4057L151.84 69.8528L152.189 69.2924L152.559 68.7283L152.947 68.1605L153.356 67.5927L154.007 66.7318L154.911 65.5851L155.847 64.4458L156.805 63.3065L157.769 62.1746L158.727 61.0502L159.431 60.2115L159.894 59.6548L160.342 59.1019L160.78 58.5527L161.204 58.0071L161.609 57.4616L161.809 57.187C162.168 56.801 162.161 56.185 161.791 55.8102C161.421 55.4354 160.83 55.4428 160.47 55.8288L160.232 56.0254L159.734 56.4262L159.218 56.8344L158.687 57.2464L158.143 57.662L157.584 58.0813L156.726 58.7234L155.548 59.6066L154.349 60.5195L153.139 61.4695L151.932 62.4604L150.747 63.4883L149.883 64.2899L149.313 64.8429L148.754 65.4106L148.206 65.9933L147.672 66.5945L147.16 67.2142L146.665 67.8525L146.192 68.5131L145.74 69.1922L145.313 69.8936L144.914 70.6172L144.548 71.3669L144.22 72.1425L143.943 72.8995L143.836 73.2187C143.829 73.2484 143.822 73.278 143.814 73.3077L143.75 73.5601L143.661 73.9757L143.597 74.3988L143.562 74.8255L143.555 75.2523L143.576 75.6791L143.626 76.1021L143.701 76.5178L143.804 76.9223L143.932 77.3156L144.085 77.6942L144.259 78.0541L144.452 78.3993L144.686 78.763L145.053 79.2454L145.537 79.7761L146.05 80.2437L146.583 80.6519L147.135 81.0118L147.701 81.3273L148.277 81.5982L148.865 81.832L149.459 82.0324L150.06 82.2031L150.669 82.3441L151.285 82.4554L151.904 82.5371L152.527 82.589L153.15 82.6076L153.772 82.5964L154.399 82.5519L155.025 82.474L155.652 82.3627L156.278 82.2105L156.904 82.0101L157.531 81.7578L158.157 81.4349L158.776 81.0341L159.296 80.6185L159.421 80.5071C159.481 80.4515 159.542 80.3921 159.599 80.3327L159.922 79.9579L160.321 79.3716L160.627 78.7592L160.841 78.1469L160.972 77.5606L161.04 77.0076L161.058 76.4881L161.04 76.0019L160.994 75.5455L160.926 75.1113L160.841 74.6957L160.741 74.2949L160.627 73.9015L160.499 73.5193L160.364 73.1407L160.218 72.7659L160.065 72.3911L159.901 72.02L159.727 71.6489L159.527 71.2741L159.221 70.7211L158.798 69.9938L158.349 69.259L157.883 68.5205L157.403 67.7783L156.911 67.0324L156.168 65.9228L155.175 64.4569L154.452 63.3733L153.993 62.6719L153.555 61.9891L153.146 61.3285L152.762 60.6976L152.409 60.089L152.171 59.6548L152.029 59.3876L151.9 59.1316L151.783 58.8904L151.68 58.664L151.587 58.4524L151.509 58.2632L151.445 58.0925L151.392 57.9478L151.349 57.829L151.317 57.7399L151.292 57.6323L151.281 57.5136V57.6063H151.271L151.253 57.5173L151.242 57.4134V57.2983L151.249 57.1721L151.256 57.0682L151.288 56.8678L151.384 56.5301L151.527 56.1664L151.712 55.7842L151.94 55.3871L152.207 54.9826L152.509 54.5781L152.844 54.1773L153.207 53.784L153.591 53.398L153.993 53.0269L154.406 52.6744L154.83 52.3441L155.257 52.0398L155.68 51.7615L156.096 51.5128L156.499 51.2939L156.883 51.112L157.242 50.9636L157.584 50.8485L157.819 50.7854L157.951 50.7558L158.068 50.7335L158.171 50.7149L158.257 50.7038L158.324 50.6927L158.378 50.6853L158.413 50.6741L158.435 50.6593L158.445 50.6407V50.5479L158.456 50.5183L158.47 50.4997H158.495L158.524 50.5145L158.559 50.5925L158.584 50.689L158.574 50.5999L158.584 50.5331L158.613 50.522L158.638 50.5368L158.652 50.5776V50.6481L158.63 50.7446L158.588 50.8597L158.524 50.9933L158.438 51.1417L158.339 51.2902L158.15 51.5388L157.833 51.8951L157.47 52.2624L157.079 52.6335L156.669 53.0047L156.257 53.3758L155.854 53.7394L155.57 54.0066L155.385 54.1885L155.207 54.3703L155.039 54.5522L154.879 54.7377L154.73 54.9344L154.595 55.1422L154.488 55.3426L154.459 55.4094C154.239 55.8288 154.388 56.3594 154.79 56.5858C155.193 56.8159 155.701 56.66 155.919 56.2407" fill="#242222"/>
<path d="M172.055 26.1927L172.077 26.1742L172.201 26.0368L172.343 25.8142L172.472 25.5284L172.564 25.239L172.635 24.9569L172.699 24.6749L172.788 24.2593L172.877 23.8585L172.941 23.6247L173.009 23.4206L173.077 23.261L173.137 23.1682H173.158L173.144 23.2202L173.119 23.2684L173.062 23.3352L172.973 23.4094L172.856 23.4688L172.742 23.4985L172.649 23.5059H172.696L172.66 23.5208H172.568L172.472 23.5022L172.383 23.4799L172.297 23.454H172.251V23.5282L172.262 23.6729L172.276 23.8733L172.286 24.122V24.7231L172.269 25.0608L172.233 25.6027L172.162 26.3449L172.123 26.7048V26.69L172.044 27.358L171.87 28.668L171.674 29.9631L171.457 31.2546L171.222 32.546L170.973 33.8337L170.571 35.7709L170.002 38.3501L169.414 40.9329L168.824 43.5344L168.251 46.1581L167.977 47.4903V47.4978L167.898 47.8689L167.742 48.6222L167.574 49.4015L167.4 50.2105L167.215 51.0455L167.023 51.9065L166.823 52.7934L166.621 53.7063L166.418 54.6415L166.211 55.6027L166.001 56.5824L165.788 57.5844L165.574 58.6049L165.361 59.644L165.147 60.7016L164.937 61.7778L164.731 62.8726L164.528 63.9822L164.329 65.1066L164.136 66.2459L163.948 67.3963L163.798 68.5616L163.674 69.7417L163.567 70.933L163.428 72.7291L163.282 75.1487L163.204 77.6017L163.183 79.4609L163.197 80.7078L163.225 81.9473L163.272 83.1868L163.339 84.4226L163.432 85.6583L163.542 86.8904L163.67 88.1188L163.827 89.3434L164.005 90.5606L164.208 91.7704L164.435 92.9728L164.692 94.164L164.973 95.3441L165.279 96.5131L165.61 97.6673L165.969 98.8103L166.364 99.9347L166.788 101.041L167.24 102.132L167.72 103.2L168.233 104.251L168.781 105.275L169.361 106.277L169.973 107.253L170.621 108.203L171.301 109.123L172.016 110.014L172.578 110.667L172.966 111.094L173.358 111.506L173.76 111.91L174.169 112.304L174.586 112.69L175.013 113.064L175.45 113.432L175.895 113.788L176.351 114.137L176.813 114.475L177.287 114.801L177.529 114.964C177.931 115.298 178.518 115.232 178.839 114.812C179.159 114.393 179.095 113.781 178.693 113.447L178.511 113.254L178.148 112.86L177.796 112.463L177.451 112.062L177.116 111.658L176.792 111.25L176.479 110.838L176.173 110.422L175.877 109.999L175.593 109.572L175.315 109.142L175.052 108.715L174.671 108.066L174.187 107.175L173.735 106.269L173.315 105.345L172.924 104.41L172.561 103.46L172.23 102.492L171.923 101.512L171.642 100.517L171.39 99.5116L171.162 98.4911L170.959 97.4557L170.774 96.4129L170.61 95.359L170.471 94.2939L170.354 93.2177L170.258 92.1304L170.176 91.0356L170.112 89.9335L170.069 88.8239L170.044 87.7068L170.03 86.5824V85.4542L170.051 84.3187L170.083 83.1794L170.123 82.0401L170.176 80.8971L170.244 79.7615L170.354 78.0507L170.543 75.761L170.756 73.4713L170.938 71.7605L171.066 70.6324L171.194 69.5079L171.308 68.3909L171.4 67.2776L171.496 66.1717L171.596 65.0732L171.699 63.9859L171.806 62.9097L171.916 61.8446L172.027 60.7944L172.137 59.759L172.251 58.7385L172.365 57.7328L172.479 56.7457L172.593 55.7771L172.706 54.8271L172.813 53.8956L172.916 52.9827L173.016 52.092L173.112 51.2236L173.205 50.3775L173.29 49.5574L173.368 48.7632L173.404 48.3847V48.3921L173.529 47.0895L173.803 44.4473L174.087 41.7828L174.368 39.0997L174.621 36.4018L174.778 34.3681L174.863 33.0025L174.931 31.6331L174.977 30.26L174.998 28.8832L174.991 27.5138L174.977 26.8384V26.8236L174.966 26.408L174.927 25.5804L174.881 24.9606L174.838 24.545L174.785 24.1368L174.721 23.736L174.639 23.3426L174.536 22.9567L174.4 22.5782L174.215 22.1996L173.952 21.8285L173.614 21.5205L173.308 21.3498L173.055 21.2644L172.795 21.2236H172.532C172.5 21.2311 172.472 21.231 172.44 21.2385L172.247 21.2793L171.98 21.3832L171.753 21.5279L171.568 21.6949L171.425 21.8693L171.301 22.0623L171.176 22.3258L171.073 22.6375L171.005 22.9455L170.959 23.2499L170.927 23.5542L170.895 23.9846L170.87 24.3817L170.856 24.6081L170.842 24.7936L170.834 24.9124L170.842 24.9606L170.881 24.9347L170.927 24.8976L170.909 24.9198C170.571 25.2427 170.546 25.7919 170.856 26.1482C171.165 26.5007 171.692 26.5267 172.034 26.2038" fill="#242222"/>
<path d="M154.417 39.1515L156.089 39.4632L159.428 40.0681L162.762 40.6618L166.094 41.2371L169.418 41.8123L172.738 42.3726L176.059 42.9219L179.376 43.4562L182.703 43.7902L186.038 44.0278L189.384 44.1131H192.74L196.103 44.076L199.477 43.9832L202.861 43.8385L206.257 43.6455L207.958 43.5305C208.47 43.5936 208.933 43.2113 208.993 42.6769C209.054 42.1425 208.687 41.6601 208.175 41.597L206.534 41.0738L203.246 40.0903L199.943 39.196L196.626 38.3907L193.298 37.6819L189.96 37.0473L186.611 36.5352L183.248 36.2086L179.874 36.0156L176.486 36.0602L173.098 36.1492L169.71 36.2828L166.321 36.4647L162.937 36.6799L159.552 36.9434L156.171 37.2477L154.481 37.4184C154.022 37.3998 153.634 37.7709 153.616 38.2497C153.598 38.7284 153.954 39.1329 154.413 39.1515" fill="#242222"/>
</svg>
